<?xml version="1.0" encoding="iso-8859-1"?>
<!-- Generator: Adobe Illustrator 19.0.0, SVG Export Plug-In . SVG Version: 6.00 Build 0)  -->
<svg version="1.1" id="Capa_1" xmlns="http://www.w3.org/2000/svg" xmlns:xlink="http://www.w3.org/1999/xlink" x="0px" y="0px"
	 viewBox="0 0 512 512" style="enable-background:new 0 0 512 512;" xml:space="preserve">
<path style="fill:#ECF0F1;" d="M475.733,503.467H36.267c-15.317,0-27.733-12.416-27.733-27.733v-364.8h494.933v364.8
	C503.467,491.051,491.051,503.467,475.733,503.467z"/>
<path style="fill:#687492;" d="M503.467,110.933H8.533V36.267c0-15.317,12.416-27.733,27.733-27.733h439.467
	c15.317,0,27.733,12.416,27.733,27.733V110.933z"/>
<rect x="42.667" y="42.667" style="fill:#E64C3C;" width="34.133" height="34.133"/>
<rect x="110.933" y="42.667" style="fill:#F0C419;" width="34.133" height="34.133"/>
<rect x="179.2" y="42.667" style="fill:#24AE5F;" width="34.133" height="34.133"/>
<rect x="51.2" y="153.6" style="fill:#26B99A;" width="409.6" height="162.133"/>
<g>
	<path style="fill:#FFFFFF;" d="M179.2,281.6c-2.185,0-4.369-0.836-6.033-2.5c-3.337-3.337-3.337-8.73,0-12.066L207.3,232.9
		c3.328-3.337,8.738-3.337,12.066,0c3.337,3.337,3.337,8.73,0,12.066L185.233,279.1C183.569,280.764,181.385,281.6,179.2,281.6z"/>
	<path style="fill:#FFFFFF;" d="M247.467,281.6c-2.185,0-4.369-0.836-6.033-2.5L207.3,244.966c-3.337-3.337-3.337-8.73,0-12.066
		c3.328-3.337,8.738-3.337,12.066,0l34.133,34.133c3.337,3.337,3.337,8.73,0,12.066C251.836,280.764,249.651,281.6,247.467,281.6z"
		/>
	<path style="fill:#FFFFFF;" d="M230.4,264.533c-2.185,0-4.369-0.836-6.033-2.5c-3.337-3.337-3.337-8.73,0-12.066l34.133-34.133
		c3.328-3.337,8.738-3.337,12.066,0c3.337,3.337,3.337,8.73,0,12.066l-34.133,34.133C234.769,263.697,232.585,264.533,230.4,264.533
		z"/>
	<path style="fill:#FFFFFF;" d="M298.667,264.533c-2.185,0-4.369-0.836-6.033-2.5L258.5,227.9c-3.337-3.337-3.337-8.73,0-12.066
		c3.328-3.337,8.738-3.337,12.066,0l34.133,34.133c3.337,3.337,3.337,8.73,0,12.066
		C303.036,263.697,300.851,264.533,298.667,264.533z"/>
	<path style="fill:#FFFFFF;" d="M341.137,221.867h-16.674c-4.821,0-8.73-3.908-8.73-8.73v-16.674c0-4.821,3.908-8.73,8.73-8.73
		h16.674c4.821,0,8.73,3.908,8.73,8.73v16.674C349.867,217.958,345.958,221.867,341.137,221.867z"/>
</g>
<rect x="51.2" y="358.4" style="fill:#4482C3;" width="102.4" height="102.4"/>
<rect x="358.4" y="358.4" style="fill:#FF5364;" width="102.4" height="102.4"/>
<rect x="204.8" y="358.4" style="fill:#F0C419;" width="102.4" height="102.4"/>
<g>
	<path style="fill:#FFFFFF;" d="M85.333,435.2c-2.185,0-4.369-0.836-6.033-2.5c-3.337-3.337-3.337-8.73,0-12.066l34.133-34.133
		c3.328-3.337,8.738-3.337,12.066,0c3.337,3.337,3.337,8.73,0,12.066L91.366,432.7C89.702,434.364,87.518,435.2,85.333,435.2z"/>
	<path style="fill:#FFFFFF;" d="M119.467,435.2c-2.185,0-4.369-0.836-6.033-2.5L79.3,398.566c-3.337-3.337-3.337-8.73,0-12.066
		c3.328-3.337,8.738-3.337,12.066,0l34.133,34.133c3.337,3.337,3.337,8.73,0,12.066C123.836,434.364,121.651,435.2,119.467,435.2z"
		/>
	<path style="fill:#FFFFFF;" d="M238.933,435.2c-2.185,0-4.369-0.836-6.033-2.5c-3.337-3.337-3.337-8.73,0-12.066l34.133-34.133
		c3.328-3.337,8.738-3.337,12.066,0c3.337,3.337,3.337,8.73,0,12.066L244.966,432.7C243.302,434.364,241.118,435.2,238.933,435.2z"
		/>
	<path style="fill:#FFFFFF;" d="M273.067,435.2c-2.185,0-4.369-0.836-6.033-2.5L232.9,398.566c-3.337-3.337-3.337-8.73,0-12.066
		c3.328-3.337,8.738-3.337,12.066,0l34.133,34.133c3.337,3.337,3.337,8.73,0,12.066C277.436,434.364,275.251,435.2,273.067,435.2z"
		/>
	<path style="fill:#FFFFFF;" d="M392.533,435.2c-2.185,0-4.369-0.836-6.033-2.5c-3.337-3.337-3.337-8.73,0-12.066l34.133-34.133
		c3.328-3.337,8.738-3.337,12.066,0c3.337,3.337,3.337,8.73,0,12.066L398.566,432.7C396.902,434.364,394.718,435.2,392.533,435.2z"
		/>
	<path style="fill:#FFFFFF;" d="M426.667,435.2c-2.185,0-4.369-0.836-6.033-2.5L386.5,398.566c-3.337-3.337-3.337-8.73,0-12.066
		c3.328-3.337,8.738-3.337,12.066,0l34.133,34.133c3.337,3.337,3.337,8.73,0,12.066C431.036,434.364,428.851,435.2,426.667,435.2z"
		/>
</g>
<g>
	<path style="fill:#611C90;" d="M460.8,324.267H51.2c-4.71,0-8.533-3.814-8.533-8.533V153.6c0-4.71,3.823-8.533,8.533-8.533h409.6
		c4.719,0,8.533,3.823,8.533,8.533v162.133C469.333,320.452,465.519,324.267,460.8,324.267z M59.733,307.2h392.533V162.133H59.733
		V307.2z"/>
	<path style="fill:#611C90;" d="M179.2,281.6c-2.185,0-4.369-0.836-6.033-2.5c-3.337-3.337-3.337-8.73,0-12.066L207.3,232.9
		c3.337-3.337,8.73-3.337,12.066,0c3.337,3.337,3.337,8.73,0,12.066L185.233,279.1C183.569,280.764,181.385,281.6,179.2,281.6z"/>
	<path style="fill:#611C90;" d="M247.467,281.6c-2.185,0-4.369-0.836-6.033-2.5L207.3,244.966c-3.337-3.337-3.337-8.73,0-12.066
		c3.337-3.337,8.73-3.337,12.066,0l34.133,34.133c3.337,3.337,3.337,8.73,0,12.066C251.836,280.764,249.651,281.6,247.467,281.6z"/>
	<path style="fill:#611C90;" d="M230.4,264.533c-2.185,0-4.369-0.836-6.033-2.5c-3.337-3.337-3.337-8.73,0-12.066l34.133-34.133
		c3.337-3.337,8.73-3.337,12.066,0c3.337,3.337,3.337,8.73,0,12.066l-34.133,34.133C234.769,263.697,232.585,264.533,230.4,264.533z
		"/>
	<path style="fill:#611C90;" d="M298.667,264.533c-2.185,0-4.369-0.836-6.033-2.5L258.5,227.9c-3.337-3.337-3.337-8.73,0-12.066
		c3.337-3.337,8.73-3.337,12.066,0l34.133,34.133c3.337,3.337,3.337,8.73,0,12.066C303.036,263.697,300.851,264.533,298.667,264.533
		z"/>
	<path style="fill:#611C90;" d="M473.6,512H38.4C17.229,512,0,494.771,0,473.6V38.4C0,17.229,17.229,0,38.4,0h435.2
		C494.771,0,512,17.229,512,38.4v435.2C512,494.771,494.771,512,473.6,512z M38.4,17.067c-11.759,0-21.333,9.574-21.333,21.333
		v435.2c0,11.767,9.574,21.333,21.333,21.333h435.2c11.767,0,21.333-9.566,21.333-21.333V38.4c0-11.759-9.566-21.333-21.333-21.333
		H38.4z"/>
	<path style="fill:#611C90;" d="M76.8,85.333H42.667c-4.71,0-8.533-3.823-8.533-8.533V42.667c0-4.71,3.823-8.533,8.533-8.533H76.8
		c4.71,0,8.533,3.823,8.533,8.533V76.8C85.333,81.51,81.51,85.333,76.8,85.333z M51.2,68.267h17.067V51.2H51.2V68.267z"/>
	<path style="fill:#611C90;" d="M145.067,85.333h-34.133c-4.71,0-8.533-3.823-8.533-8.533V42.667c0-4.71,3.823-8.533,8.533-8.533
		h34.133c4.71,0,8.533,3.823,8.533,8.533V76.8C153.6,81.51,149.777,85.333,145.067,85.333z M119.467,68.267h17.067V51.2h-17.067
		V68.267z"/>
	<path style="fill:#611C90;" d="M213.333,85.333H179.2c-4.71,0-8.533-3.823-8.533-8.533V42.667c0-4.71,3.823-8.533,8.533-8.533
		h34.133c4.71,0,8.533,3.823,8.533,8.533V76.8C221.867,81.51,218.044,85.333,213.333,85.333z M187.733,68.267H204.8V51.2h-17.067
		V68.267z"/>
	<path style="fill:#611C90;" d="M341.137,230.4h-16.666c-9.532,0-17.271-7.748-17.271-17.263v-16.674
		c0-9.515,7.74-17.263,17.263-17.263h16.666c9.532,0,17.271,7.748,17.271,17.263v16.674C358.4,222.652,350.66,230.4,341.137,230.4z
		 M324.463,196.267l-0.196,16.87l16.87,0.196c0.102,0,0.196-0.085,0.196-0.196v-16.674L324.463,196.267z"/>
	<path style="fill:#611C90;" d="M503.467,119.467H8.533c-4.71,0-8.533-3.823-8.533-8.533V38.4C0,17.229,17.229,0,38.4,0h435.2
		C494.771,0,512,17.229,512,38.4v72.533C512,115.644,508.186,119.467,503.467,119.467z M17.067,102.4h477.867v-64
		c0-11.759-9.566-21.333-21.333-21.333H38.4c-11.759,0-21.333,9.574-21.333,21.333V102.4z"/>
	<path style="fill:#611C90;" d="M153.6,469.333H51.2c-4.71,0-8.533-3.814-8.533-8.533V358.4c0-4.719,3.823-8.533,8.533-8.533h102.4
		c4.71,0,8.533,3.814,8.533,8.533v102.4C162.133,465.519,158.31,469.333,153.6,469.333z M59.733,452.267h85.333v-85.333H59.733
		V452.267z"/>
	<path style="fill:#611C90;" d="M460.8,469.333H358.4c-4.719,0-8.533-3.814-8.533-8.533V358.4c0-4.719,3.814-8.533,8.533-8.533
		h102.4c4.719,0,8.533,3.814,8.533,8.533v102.4C469.333,465.519,465.519,469.333,460.8,469.333z M366.933,452.267h85.333v-85.333
		h-85.333V452.267z"/>
	<path style="fill:#611C90;" d="M307.2,469.333H204.8c-4.71,0-8.533-3.814-8.533-8.533V358.4c0-4.719,3.823-8.533,8.533-8.533h102.4
		c4.719,0,8.533,3.814,8.533,8.533v102.4C315.733,465.519,311.919,469.333,307.2,469.333z M213.333,452.267h85.333v-85.333h-85.333
		V452.267z"/>
	<path style="fill:#611C90;" d="M85.333,435.2c-2.185,0-4.369-0.836-6.033-2.5c-3.337-3.337-3.337-8.73,0-12.066l34.133-34.133
		c3.337-3.337,8.73-3.337,12.066,0s3.337,8.73,0,12.066L91.366,432.7C89.702,434.364,87.518,435.2,85.333,435.2z"/>
	<path style="fill:#611C90;" d="M119.467,435.2c-2.185,0-4.369-0.836-6.033-2.5L79.3,398.566c-3.337-3.337-3.337-8.73,0-12.066
		s8.73-3.337,12.066,0l34.133,34.133c3.337,3.337,3.337,8.73,0,12.066C123.836,434.364,121.651,435.2,119.467,435.2z"/>
	<path style="fill:#611C90;" d="M238.933,435.2c-2.185,0-4.369-0.836-6.033-2.5c-3.337-3.337-3.337-8.73,0-12.066l34.133-34.133
		c3.337-3.337,8.73-3.337,12.066,0c3.337,3.337,3.337,8.73,0,12.066L244.966,432.7C243.302,434.364,241.118,435.2,238.933,435.2z"/>
	<path style="fill:#611C90;" d="M273.067,435.2c-2.185,0-4.369-0.836-6.033-2.5L232.9,398.566c-3.337-3.337-3.337-8.73,0-12.066
		c3.337-3.337,8.73-3.337,12.066,0l34.133,34.133c3.337,3.337,3.337,8.73,0,12.066C277.436,434.364,275.251,435.2,273.067,435.2z"/>
	<path style="fill:#611C90;" d="M392.533,435.2c-2.185,0-4.369-0.836-6.033-2.5c-3.337-3.337-3.337-8.73,0-12.066l34.133-34.133
		c3.337-3.337,8.73-3.337,12.066,0s3.337,8.73,0,12.066L398.566,432.7C396.902,434.364,394.718,435.2,392.533,435.2z"/>
	<path style="fill:#611C90;" d="M426.667,435.2c-2.185,0-4.369-0.836-6.033-2.5L386.5,398.566c-3.337-3.337-3.337-8.73,0-12.066
		s8.73-3.337,12.066,0l34.133,34.133c3.337,3.337,3.337,8.73,0,12.066C431.036,434.364,428.851,435.2,426.667,435.2z"/>
</g>
<g>
</g>
<g>
</g>
<g>
</g>
<g>
</g>
<g>
</g>
<g>
</g>
<g>
</g>
<g>
</g>
<g>
</g>
<g>
</g>
<g>
</g>
<g>
</g>
<g>
</g>
<g>
</g>
<g>
</g>
</svg>
