<?xml version="1.0" encoding="utf-8"?>
<!-- Generator: Adobe Illustrator 23.0.1, SVG Export Plug-In . SVG Version: 6.00 Build 0)  -->
<svg version="1.1" id="Warstwa_1" xmlns="http://www.w3.org/2000/svg" xmlns:xlink="http://www.w3.org/1999/xlink" x="0px" y="0px"
	 viewBox="0 0 512 512" style="enable-background:new 0 0 512 512;" xml:space="preserve">
<style type="text/css">
	.st0{fill:#F5E6FE;}
	.st1{fill:url(#SVGID_1_);}
	.st2{fill:url(#SVGID_2_);}
	.st3{fill:url(#SVGID_3_);}
</style>
<path class="st0" d="M416,512H96c-53,0-96-43-96-96V96C0,43,43,0,96,0h320c53,0,96,43,96,96v320C512,469,469,512,416,512z"/>
<g>
	<linearGradient id="SVGID_1_" gradientUnits="userSpaceOnUse" x1="160" y1="192.0078" x2="352.0156" y2="192.0078">
		<stop  offset="0" style="stop-color:#4764E6"/>
		<stop  offset="1" style="stop-color:#694FFF"/>
	</linearGradient>
	<path class="st1" d="M341.3,170.7H170.7c-5.9,0-10.7,4.8-10.7,10.7v21.3c0,5.9,4.8,10.7,10.7,10.7h170.7c5.9,0,10.7-4.8,10.7-10.7
		v-21.3C352,175.5,347.2,170.7,341.3,170.7z"/>
	<linearGradient id="SVGID_2_" gradientUnits="userSpaceOnUse" x1="160" y1="256.0078" x2="352.0156" y2="256.0078">
		<stop  offset="0" style="stop-color:#4764E6"/>
		<stop  offset="1" style="stop-color:#694FFF"/>
	</linearGradient>
	<path class="st2" d="M341.3,234.7H170.7c-5.9,0-10.7,4.8-10.7,10.7v21.3c0,5.9,4.8,10.7,10.7,10.7h170.7c5.9,0,10.7-4.8,10.7-10.7
		v-21.3C352,239.5,347.2,234.7,341.3,234.7z"/>
	<linearGradient id="SVGID_3_" gradientUnits="userSpaceOnUse" x1="160" y1="320.0078" x2="352.0156" y2="320.0078">
		<stop  offset="0" style="stop-color:#4764E6"/>
		<stop  offset="1" style="stop-color:#694FFF"/>
	</linearGradient>
	<path class="st3" d="M341.3,298.7H170.7c-5.9,0-10.7,4.8-10.7,10.7v21.3c0,5.9,4.8,10.7,10.7,10.7h170.7c5.9,0,10.7-4.8,10.7-10.7
		v-21.3C352,303.5,347.2,298.7,341.3,298.7z"/>
</g>
</svg>
