<svg xmlns="http://www.w3.org/2000/svg" width="86.56" height="181.97" viewBox="0 0 86.56 181.97">
  <metadata><?xpacket begin="﻿" id="W5M0MpCehiHzreSzNTczkc9d"?>
<x:xmpmeta xmlns:x="adobe:ns:meta/" x:xmptk="Adobe XMP Core 5.6-c142 79.160924, 2017/07/13-01:06:39        ">
   <rdf:RDF xmlns:rdf="http://www.w3.org/1999/02/22-rdf-syntax-ns#">
      <rdf:Description rdf:about=""/>
   </rdf:RDF>
</x:xmpmeta>
                                                                                                    
                                                                                                    
                                                                                                    
                                                                                                    
                                                                                                    
                                                                                                    
                                                                                                    
                                                                                                    
                                                                                                    
                                                                                                    
                                                                                                    
                                                                                                    
                                                                                                    
                                                                                                    
                                                                                                    
                                                                                                    
                                                                                                    
                                                                                                    
                                                                                                    
                                                                                                    
                           
<?xpacket end="w"?></metadata>
<defs>
    <style>
      .cls-1 {
        fill: #dadcf5;
        fill-rule: evenodd;
      }
    </style>
  </defs>
  <path id="Line_blue" class="cls-1" d="M1153,1016c-16.06-.18-24.87,1.65-28,7a10.933,10.933,0,0,0-1,9c0.91,2.55,3.14,5.09,8,7a24.575,24.575,0,0,0,12,1c11.97-2.16,21.75-1.92,28,0,6.87,2.11,10.86,5.88,12,8,4.2,7.81-1.69,17.8-7,29-8.67,18.29-10.92,33.94-9,40.5,3.56,12.15,14.98,20.37,23,24.5,4.21,2.17,13.73,5.14,24,6,8.69,0.73,15.29-.51,24,0,14.79,0.87,29.15,3.86,31.5,11.5,2.3,7.49-8.71,14.46-8,26,0.17,2.77,1.12,9.08,5.5,11.5,5.97,3.3,14.7-2.55,18.5-6,11.41-10.36,14.04-30.91,6-44.5-5.2-8.8-17.35-17.04-42-19-19.27-1.53-33.01,3.69-48-4.5-6.2-3.38-9.28-7.09-10.5-11-2.51-8.01,2.95-16.03,6-21,12.16-19.81,15.52-35.02,12-46.5-1.95-6.34-6.66-13.41-17.5-20.5C1186.2,1019.88,1171.29,1016.2,1153,1016Z" transform="translate(-1123.44 -1016)"/>
</svg>
