<svg xmlns="http://www.w3.org/2000/svg" width="266" height="106" viewBox="0 0 266 106">
  <metadata><?xpacket begin="﻿" id="W5M0MpCehiHzreSzNTczkc9d"?>
<x:xmpmeta xmlns:x="adobe:ns:meta/" x:xmptk="Adobe XMP Core 5.6-c142 79.160924, 2017/07/13-01:06:39        ">
   <rdf:RDF xmlns:rdf="http://www.w3.org/1999/02/22-rdf-syntax-ns#">
      <rdf:Description rdf:about=""/>
   </rdf:RDF>
</x:xmpmeta>
                                                                                                    
                                                                                                    
                                                                                                    
                                                                                                    
                                                                                                    
                                                                                                    
                                                                                                    
                                                                                                    
                                                                                                    
                                                                                                    
                                                                                                    
                                                                                                    
                                                                                                    
                                                                                                    
                                                                                                    
                                                                                                    
                                                                                                    
                                                                                                    
                                                                                                    
                                                                                                    
                           
<?xpacket end="w"?></metadata>
<defs>
    <style>
      .cls-1 {
        fill: #e3faea;
        fill-rule: evenodd;
      }
    </style>
  </defs>
  <path id="Line_green" class="cls-1" d="M708.6,1022.49c-5.834-13.04,31.883-59.3,81.835-64.846,7-.776,17.1-0.461,27.605.847,15.023,1.87,28.72,6.713,41.2,9.212,11.787,2.359,24.262,3.5,29.62,2.77,22.252-3.012,39.231-16.809,47.885-27.487,0.013-.015,18.165-16.965,18.612-17.382a10.561,10.561,0,0,1,4.529-2.422c4.487-.948,9.864,1.7,12.422,5.94a12.935,12.935,0,0,1,1.685,7.525c-0.483,9.3-8.017,16.247-11.228,19.224-7.7,7.139-13.794,14.347-21.3,19.555-15.193,10.55-29.843,16.459-43.278,19.045-9.241,1.778-30.265,1.745-51.35-2.863-22.484-4.913-35.291-11.969-54.879-8.715-10.754,1.786-22.275,6.434-33.633,14.7-7.328,5.336-30.8,32.076-40.666,31.416a10.939,10.939,0,0,1-3.693-.92A11.9,11.9,0,0,1,708.6,1022.49Z" transform="translate(-708 -923)"/>
</svg>
