<svg xmlns="http://www.w3.org/2000/svg" width="345" height="235.62" viewBox="0 0 345 235.62">
  <metadata><?xpacket begin="﻿" id="W5M0MpCehiHzreSzNTczkc9d"?>
<x:xmpmeta xmlns:x="adobe:ns:meta/" x:xmptk="Adobe XMP Core 5.6-c142 79.160924, 2017/07/13-01:06:39        ">
   <rdf:RDF xmlns:rdf="http://www.w3.org/1999/02/22-rdf-syntax-ns#">
      <rdf:Description rdf:about=""/>
   </rdf:RDF>
</x:xmpmeta>
                                                                                                    
                                                                                                    
                                                                                                    
                                                                                                    
                                                                                                    
                                                                                                    
                                                                                                    
                                                                                                    
                                                                                                    
                                                                                                    
                                                                                                    
                                                                                                    
                                                                                                    
                                                                                                    
                                                                                                    
                                                                                                    
                                                                                                    
                                                                                                    
                                                                                                    
                                                                                                    
                           
<?xpacket end="w"?></metadata>
<defs>
    <style>
      .cls-1 {
        fill: #fcdddf;
        fill-rule: evenodd;
      }
    </style>
  </defs>
  <path id="Line_pink" class="cls-1" d="M248,1441c-12.752-16.3,23.908-94.66,92-120,9.535-3.55,23.814-6.65,39-8.5,21.719-2.64,42.622-.63,61-1.5,17.353-.82,35.243-3.6,42.5-6.5,30.143-12.05,49.111-37.43,57.5-55.5,0.012-.03,19.52-30.26,20-31a15.285,15.285,0,0,1,5.5-5c5.958-2.91,14.426-1.07,19.5,4a18.778,18.778,0,0,1,5,10c2.585,13.26-5.543,25.68-9,31-8.292,12.75-14.311,25.04-23,35-17.6,20.18-36.071,33.64-54,42-12.334,5.75-41.822,13.08-73,14-33.248.98-53.677-4.46-80,7-14.452,6.29-28.975,16.88-42,32.5-8.406,10.08-31.933,55.95-46,58.5a15.834,15.834,0,0,1-5.5,0A17.163,17.163,0,0,1,248,1441Z" transform="translate(-245.5 -1211.63)"/>
</svg>
