<?xml version="1.0"?>
<svg xmlns="http://www.w3.org/2000/svg" height="512px" viewBox="0 0 512 512" width="512px" class=""><g><path d="m477.867188 170.667969v-51.203125h-42.667969v-17.054688c0-14.140625-11.46875-25.609375-25.609375-25.609375h-17.054688v-42.667969h-51.203125v42.667969h-59.730469v-42.667969h-51.203124v42.667969h-59.730469v-42.667969h-51.203125v42.667969h-17.054688c-14.140625 0-25.609375 11.46875-25.609375 25.609375v17.054688h-42.667969v51.203125h42.667969v59.730469h-42.667969v51.203124h42.667969v59.730469h-42.667969v51.203125h42.667969v17.054688c0 14.140625 11.46875 25.609375 25.609375 25.609375h17.054688v42.667969h51.203125v-42.667969h59.730469v42.667969h51.203124v-42.667969h59.730469v42.667969h51.203125v-42.667969h17.054688c14.140625 0 25.609375-11.46875 25.609375-25.609375v-17.054688h42.667969v-51.203125h-42.667969v-59.730469h42.667969v-51.203124h-42.667969v-59.730469zm0 0" fill="#28384c" data-original="#28384C" class="" style="fill:#D6B0FF" data-old_color="#28384c"/><path d="m110.933594 110.933594h290.132812v290.132812h-290.132812zm0 0" fill="#ebba16" data-original="#EBBA16" class=""/><path d="m256 153.601562v204.796876c7.78125 10.359374 20.171875 17.066406 34.132812 17.066406 23.5625 0 42.667969-19.105469 42.667969-42.664063 18.847657 0 34.132813-15.285156 34.132813-34.132812 0-11.425781-5.667969-21.480469-14.285156-27.675781 13.261718-4.683594 22.816406-17.195313 22.816406-32.058594 0-16.539063-11.765625-30.320313-27.375-33.449219 1.109375-2.867187 1.777344-5.957031 1.777344-9.21875 0-14.140625-11.460938-25.597656-25.601563-25.597656-3.070313 0-5.972656.628906-8.695313 1.621093.027344-.554687.164063-1.066406.164063-1.621093 0-18.851563-15.285156-34.132813-34.132813-34.132813-17.066406 0-25.601562 17.066406-25.601562 17.066406zm0 0" fill="#b50026" data-original="#B50026" class=""/><path d="m256 153.601562v204.796876c-7.78125 10.359374-20.171875 17.066406-34.132812 17.066406-23.5625 0-42.667969-19.105469-42.667969-42.664063-18.847657 0-34.132813-15.285156-34.132813-34.132812 0-11.425781 5.667969-21.480469 14.285156-27.675781-13.261718-4.683594-22.816406-17.195313-22.816406-32.058594 0-16.539063 11.765625-30.320313 27.375-33.449219-1.109375-2.867187-1.777344-5.957031-1.777344-9.21875 0-14.140625 11.460938-25.597656 25.601563-25.597656 3.070313 0 5.972656.628906 8.695313 1.621093-.027344-.554687-.164063-1.066406-.164063-1.621093 0-18.851563 15.285156-34.132813 34.132813-34.132813 17.066406 0 25.601562 17.066406 25.601562 17.066406zm0 0" fill="#cb465f" data-original="#CB465F" class="" style="fill:#FF5562" data-old_color="#cb465f"/><g fill="#4d007e"><path d="m145.066406 42.667969c-4.710937 0-8.53125-3.824219-8.53125-8.535157v-25.597656c0-4.710937 3.820313-8.535156 8.53125-8.535156 4.710938 0 8.535156 3.824219 8.535156 8.535156v25.597656c0 4.710938-3.824218 8.535157-8.535156 8.535157zm0 0" data-original="#4D007E" class="active-path" style="fill:#590BB2" data-old_color="#4D007E"/><path d="m256 42.667969c-4.710938 0-8.535156-3.824219-8.535156-8.535157v-25.597656c0-4.710937 3.824218-8.535156 8.535156-8.535156s8.535156 3.824219 8.535156 8.535156v25.597656c0 4.710938-3.824218 8.535157-8.535156 8.535157zm0 0" data-original="#4D007E" class="active-path" style="fill:#590BB2" data-old_color="#4D007E"/><path d="m366.933594 42.667969c-4.710938 0-8.535156-3.824219-8.535156-8.535157v-25.597656c0-4.710937 3.824218-8.535156 8.535156-8.535156 4.710937 0 8.53125 3.824219 8.53125 8.535156v25.597656c0 4.710938-3.820313 8.535157-8.53125 8.535157zm0 0" data-original="#4D007E" class="active-path" style="fill:#590BB2" data-old_color="#4D007E"/><path d="m401.066406 409.601562h-290.132812c-4.710938 0-8.535156-3.824218-8.535156-8.535156v-290.132812c0-4.710938 3.824218-8.535156 8.535156-8.535156h290.132812c4.710938 0 8.535156 3.824218 8.535156 8.535156v290.132812c0 4.710938-3.824218 8.535156-8.535156 8.535156zm-281.601562-17.066406h273.070312v-273.070312h-273.070312zm0 0" data-original="#4D007E" class="active-path" style="fill:#590BB2" data-old_color="#4D007E"/><path d="m366.933594 512c-4.710938 0-8.535156-3.824219-8.535156-8.535156v-25.597656c0-4.710938 3.824218-8.535157 8.535156-8.535157 4.710937 0 8.53125 3.824219 8.53125 8.535157v25.597656c0 4.710937-3.820313 8.535156-8.53125 8.535156zm0 0" data-original="#4D007E" class="active-path" style="fill:#590BB2" data-old_color="#4D007E"/><path d="m256 512c-4.710938 0-8.535156-3.824219-8.535156-8.535156v-25.597656c0-4.710938 3.824218-8.535157 8.535156-8.535157s8.535156 3.824219 8.535156 8.535157v25.597656c0 4.710937-3.824218 8.535156-8.535156 8.535156zm0 0" data-original="#4D007E" class="active-path" style="fill:#590BB2" data-old_color="#4D007E"/><path d="m145.066406 512c-4.710937 0-8.53125-3.824219-8.53125-8.535156v-25.597656c0-4.710938 3.820313-8.535157 8.53125-8.535157 4.710938 0 8.535156 3.824219 8.535156 8.535157v25.597656c0 4.710937-3.824218 8.535156-8.535156 8.535156zm0 0" data-original="#4D007E" class="active-path" style="fill:#590BB2" data-old_color="#4D007E"/><path d="m503.464844 153.601562h-25.597656c-4.710938 0-8.535157-3.824218-8.535157-8.535156 0-4.710937 3.824219-8.53125 8.535157-8.53125h25.597656c4.710937 0 8.535156 3.820313 8.535156 8.53125 0 4.710938-3.824219 8.535156-8.535156 8.535156zm0 0" data-original="#4D007E" class="active-path" style="fill:#590BB2" data-old_color="#4D007E"/><path d="m503.464844 264.535156h-25.597656c-4.710938 0-8.535157-3.824218-8.535157-8.535156s3.824219-8.535156 8.535157-8.535156h25.597656c4.710937 0 8.535156 3.824218 8.535156 8.535156s-3.824219 8.535156-8.535156 8.535156zm0 0" data-original="#4D007E" class="active-path" style="fill:#590BB2" data-old_color="#4D007E"/><path d="m503.464844 375.464844h-25.597656c-4.710938 0-8.535157-3.820313-8.535157-8.53125 0-4.710938 3.824219-8.535156 8.535157-8.535156h25.597656c4.710937 0 8.535156 3.824218 8.535156 8.535156 0 4.710937-3.824219 8.53125-8.535156 8.53125zm0 0" data-original="#4D007E" class="active-path" style="fill:#590BB2" data-old_color="#4D007E"/><path d="m392.535156 486.398438h-51.203125c-4.710937 0-8.53125-3.820313-8.53125-8.53125v-34.132813h-42.667969v34.132813c0 4.710937-3.824218 8.53125-8.53125 8.53125h-51.203124c-4.707032 0-8.53125-3.820313-8.53125-8.53125v-34.132813h-42.667969v34.132813c0 4.710937-3.820313 8.53125-8.53125 8.53125h-51.203125c-4.707032 0-8.53125-3.820313-8.53125-8.53125v-34.132813h-8.523438c-18.824218 0-34.144531-15.320313-34.144531-34.144531v-8.523438h-34.132813c-4.710937 0-8.53125-3.824218-8.53125-8.53125v-51.203125c0-4.710937 3.820313-8.53125 8.53125-8.53125h34.132813v-42.667969h-34.132813c-4.710937 0-8.53125-3.824218-8.53125-8.53125v-51.203124c0-4.707032 3.820313-8.53125 8.53125-8.53125h34.132813v-42.667969h-34.132813c-4.710937 0-8.53125-3.820313-8.53125-8.53125v-51.203125c0-4.707032 3.820313-8.53125 8.53125-8.53125h34.132813v-8.523438c0-18.824218 15.320313-34.144531 34.144531-34.144531h8.523438v-34.132813c0-4.710937 3.824218-8.53125 8.53125-8.53125h51.203125c4.710937 0 8.53125 3.820313 8.53125 8.53125v34.132813h42.667969v-34.132813c0-4.710937 3.824218-8.53125 8.53125-8.53125h51.203124c4.707032 0 8.53125 3.820313 8.53125 8.53125v34.132813h42.667969v-34.132813c0-4.710937 3.820313-8.53125 8.53125-8.53125h51.203125c4.707032 0 8.53125 3.820313 8.53125 8.53125v34.132813h8.523438c18.824218 0 34.144531 15.320313 34.144531 34.144531v8.523438h34.132813c4.710937 0 8.53125 3.824218 8.53125 8.53125v51.203125c0 4.710937-3.820313 8.53125-8.53125 8.53125h-34.132813v42.667969h34.132813c4.710937 0 8.53125 3.824218 8.53125 8.53125v51.203124c0 4.707032-3.820313 8.53125-8.53125 8.53125h-34.132813v42.667969h34.132813c4.710937 0 8.53125 3.820313 8.53125 8.53125v51.203125c0 4.707032-3.820313 8.53125-8.53125 8.53125h-34.132813v8.523438c0 18.824218-15.320313 34.144531-34.144531 34.144531h-8.523438v34.132813c0 4.710937-3.824218 8.53125-8.53125 8.53125zm-42.667968-17.066407h34.132812v-34.132812c0-4.710938 3.824219-8.53125 8.535156-8.53125h17.054688c9.414062 0 17.078125-7.664063 17.078125-17.078125v-17.054688c0-4.710937 3.820312-8.535156 8.53125-8.535156h34.132812v-34.132812h-34.132812c-4.710938 0-8.53125-3.824219-8.53125-8.535157v-59.730469c0-4.710937 3.820312-8.535156 8.53125-8.535156h34.132812v-34.132812h-34.132812c-4.710938 0-8.53125-3.824219-8.53125-8.535156v-59.730469c0-4.710938 3.820312-8.535157 8.53125-8.535157h34.132812v-34.132812h-34.132812c-4.710938 0-8.53125-3.824219-8.53125-8.535156v-17.054688c0-9.414062-7.664063-17.078125-17.078125-17.078125h-17.054688c-4.710937 0-8.535156-3.820312-8.535156-8.53125v-34.132812h-34.132812v34.132812c0 4.710938-3.824219 8.53125-8.535157 8.53125h-59.730469c-4.710937 0-8.535156-3.820312-8.535156-8.53125v-34.132812h-34.132812v34.132812c0 4.710938-3.824219 8.53125-8.535156 8.53125h-59.730469c-4.710938 0-8.535157-3.820312-8.535157-8.53125v-34.132812h-34.132812v34.132812c0 4.710938-3.824219 8.53125-8.535156 8.53125h-17.054688c-9.414062 0-17.078125 7.664063-17.078125 17.078125v17.054688c0 4.710937-3.820312 8.535156-8.53125 8.535156h-34.132812v34.132812h34.132812c4.710938 0 8.53125 3.824219 8.53125 8.535157v59.730469c0 4.710937-3.820312 8.535156-8.53125 8.535156h-34.132812v34.132812h34.132812c4.710938 0 8.53125 3.824219 8.53125 8.535156v59.730469c0 4.710938-3.820312 8.535157-8.53125 8.535157h-34.132812v34.132812h34.132812c4.710938 0 8.53125 3.824219 8.53125 8.535156v17.054688c0 9.414062 7.664063 17.078125 17.078125 17.078125h17.054688c4.710937 0 8.535156 3.820312 8.535156 8.53125v34.132812h34.132812v-34.132812c0-4.710938 3.824219-8.53125 8.535157-8.53125h59.730469c4.710937 0 8.535156 3.820312 8.535156 8.53125v34.132812h34.132812v-34.132812c0-4.710938 3.824219-8.53125 8.535156-8.53125h59.730469c4.710938 0 8.535157 3.820312 8.535157 8.53125zm0 0" data-original="#4D007E" class="active-path" style="fill:#590BB2" data-old_color="#4D007E"/><path d="m34.132812 375.464844h-25.597656c-4.710937 0-8.535156-3.820313-8.535156-8.53125 0-4.710938 3.824219-8.535156 8.535156-8.535156h25.597656c4.710938 0 8.535157 3.824218 8.535157 8.535156 0 4.710937-3.824219 8.53125-8.535157 8.53125zm0 0" data-original="#4D007E" class="active-path" style="fill:#590BB2" data-old_color="#4D007E"/><path d="m34.132812 264.535156h-25.597656c-4.710937 0-8.535156-3.824218-8.535156-8.535156s3.824219-8.535156 8.535156-8.535156h25.597656c4.710938 0 8.535157 3.824218 8.535157 8.535156s-3.824219 8.535156-8.535157 8.535156zm0 0" data-original="#4D007E" class="active-path" style="fill:#590BB2" data-old_color="#4D007E"/><path d="m34.132812 153.601562h-25.597656c-4.710937 0-8.535156-3.824218-8.535156-8.535156 0-4.710937 3.824219-8.53125 8.535156-8.53125h25.597656c4.710938 0 8.535157 3.820313 8.535157 8.53125 0 4.710938-3.824219 8.535156-8.535157 8.535156zm0 0" data-original="#4D007E" class="active-path" style="fill:#590BB2" data-old_color="#4D007E"/><path d="m290.132812 384c-16.253906 0-31.179687-7.464844-40.960937-20.472656-1.109375-1.476563-1.707031-3.277344-1.707031-5.128906v-204.796876c0-1.324218.308594-2.636718.898437-3.816406.453125-.886718 11.152344-21.785156 33.238281-21.785156 20.605469 0 37.851563 14.6875 41.8125 34.140625 18.925782-.628906 34.984376 15.019531 34.984376 34.125 0 1.160156-.058594 2.320313-.1875 3.484375 15.34375 6.628906 25.789062 21.9375 25.789062 39.183594 0 13.617187-6.578125 26.171875-17.195312 34.082031 5.539062 7.320313 8.660156 16.324219 8.660156 25.652344 0 20.8125-14.972656 38.195312-34.71875 41.921875-3.765625 24.550781-25.03125 43.410156-50.613282 43.410156zm-25.597656-28.621094c6.484375 7.375 15.664063 11.554688 25.597656 11.554688 18.824219 0 34.132813-15.308594 34.132813-34.132813 0-4.710937 3.824219-8.535156 8.535156-8.535156 14.113281 0 25.597657-11.484375 25.597657-25.597656 0-8.277344-3.90625-15.839844-10.726563-20.746094-2.574219-1.851563-3.90625-4.984375-3.460937-8.132813.441406-3.148437 2.601562-5.785156 5.597656-6.84375 10.238281-3.617187 17.125-13.269531 17.125-24.011718 0-12.144532-8.636719-22.699219-20.523438-25.089844-2.472656-.492188-4.597656-2.054688-5.800781-4.265625-1.214844-2.210937-1.382813-4.835937-.472656-7.183594.796875-2.058593 1.195312-4.113281 1.195312-6.128906 0-9.410156-7.652343-17.066406-17.066406-17.066406-1.84375 0-3.738281.359375-5.785156 1.101562-2.679688.972657-5.675781.539063-7.96875-1.152343-2.296875-1.6875-3.59375-4.410157-3.464844-7.261719.007813-.273438.117187-1.261719.152344-1.535157 0-13.800781-11.484375-25.285156-25.597657-25.285156-8.980468 0-14.902343 7.542969-17.066406 10.863282zm0 0" data-original="#4D007E" class="active-path" style="fill:#590BB2" data-old_color="#4D007E"/><path d="m375.464844 247.464844c-4.707032 0-8.53125-3.820313-8.53125-8.53125 0-14.113282-11.484375-25.601563-25.601563-25.601563-14.113281 0-25.597656 11.488281-25.597656 25.601563 0 4.710937-3.824219 8.53125-8.535156 8.53125-4.710938 0-8.53125-3.820313-8.53125-8.53125 0-23.527344 19.140625-42.667969 42.664062-42.667969 23.527344 0 42.667969 19.140625 42.667969 42.667969 0 4.710937-3.824219 8.53125-8.535156 8.53125zm0 0" data-original="#4D007E" class="active-path" style="fill:#590BB2" data-old_color="#4D007E"/><path d="m290.132812 384c-4.710937 0-8.53125-3.824219-8.53125-8.535156 0-4.707032 3.820313-8.53125 8.53125-8.53125 18.824219 0 34.132813-15.308594 34.132813-34.132813 0-10.839843-4.972656-20.796875-13.660156-27.308593-3.765625-2.832032-4.53125-8.183594-1.699219-11.945313 2.832031-3.773437 8.175781-4.523437 11.945312-1.699219 13.015626 9.773438 20.480469 24.695313 20.480469 40.953125 0 28.234375-22.960937 51.199219-51.199219 51.199219zm0 0" data-original="#4D007E" class="active-path" style="fill:#590BB2" data-old_color="#4D007E"/><path d="m221.867188 384c-25.582032 0-46.847657-18.859375-50.613282-43.410156-19.746094-3.726563-34.71875-21.109375-34.71875-41.921875 0-9.328125 3.121094-18.332031 8.667969-25.652344-10.625-7.910156-17.203125-20.464844-17.203125-34.082031 0-17.246094 10.445312-32.554688 25.789062-39.183594-.128906-1.164062-.1875-2.324219-.1875-3.484375 0-19.105469 15.921876-34.542969 34.984376-34.125 3.960937-19.453125 21.207031-34.140625 41.8125-34.140625 22.085937 0 32.785156 20.898438 33.238281 21.785156.589843 1.179688.898437 2.492188.898437 3.816406v204.796876c0 1.84375-.597656 3.644531-1.707031 5.128906-9.773437 13.007812-24.707031 20.472656-40.960937 20.472656zm-34.132813-204.800781c-9.414063 0-17.066406 7.65625-17.066406 17.066406 0 2.007813.398437 4.070313 1.203125 6.136719.902344 2.347656.734375 4.976562-.480469 7.183594-1.210937 2.210937-3.335937 3.765624-5.800781 4.269531-11.886719 2.378906-20.523438 12.933593-20.523438 25.078125 0 10.742187 6.886719 20.394531 17.125 24.011718 2.996094 1.058594 5.15625 3.695313 5.597656 6.84375.453126 3.148438-.886718 6.28125-3.460937 8.132813-6.820313 4.90625-10.726563 12.46875-10.726563 20.746094 0 14.113281 11.484376 25.597656 25.597657 25.597656 4.710937 0 8.535156 3.824219 8.535156 8.535156 0 18.824219 15.308594 34.132813 34.132813 34.132813 9.933593 0 19.113281-4.179688 25.597656-11.554688v-199.449218c-2.164063-3.320313-8.085938-10.863282-17.066406-10.863282-14.113282 0-25.597657 11.484375-25.597657 25.601563.035157.261719.144531.953125.152344 1.226562.128906 2.851563-1.167969 5.574219-3.464844 7.261719-2.292969 1.699219-5.28125 2.132812-7.96875 1.152344-2.046875-.75-3.941406-1.109375-5.785156-1.109375zm0 0" data-original="#4D007E" class="active-path" style="fill:#590BB2" data-old_color="#4D007E"/><path d="m204.800781 247.464844c-4.710937 0-8.535156-3.820313-8.535156-8.53125 0-14.113282-11.484375-25.601563-25.597656-25.601563-14.117188 0-25.601563 11.488281-25.601563 25.601563 0 4.710937-3.824218 8.53125-8.53125 8.53125-4.710937 0-8.535156-3.820313-8.535156-8.53125 0-23.527344 19.140625-42.667969 42.667969-42.667969 23.523437 0 42.664062 19.140625 42.664062 42.667969 0 4.710937-3.820312 8.53125-8.53125 8.53125zm0 0" data-original="#4D007E" class="active-path" style="fill:#590BB2" data-old_color="#4D007E"/><path d="m221.867188 384c-28.238282 0-51.199219-22.964844-51.199219-51.199219 0-16.257812 7.464843-31.179687 20.46875-40.960937 3.773437-2.824219 9.113281-2.074219 11.949219 1.699218 2.832031 3.761719 2.0625 9.113282-1.699219 11.945313-8.679688 6.519531-13.652344 16.476563-13.652344 27.316406 0 18.824219 15.308594 34.132813 34.132813 34.132813 4.710937 0 8.53125 3.824218 8.53125 8.53125 0 4.710937-3.820313 8.535156-8.53125 8.535156zm0 0" data-original="#4D007E" class="active-path" style="fill:#590BB2" data-old_color="#4D007E"/></g></g> </svg>
