<svg xmlns="http://www.w3.org/2000/svg" xmlns:xlink="http://www.w3.org/1999/xlink" viewBox="0 0 430.57 389.62">
	<style>
		<![CDATA[
		.H {
			isolation: isolate
		}

		.V {
			fill: #fff
		}

		.W {
			fill: #d7ecfa
		}

		.X {
			fill: #36e7f7
		}

		.Y {
			fill: #0b246e
		}

		.Z {
			fill: #88f7ff
		}

		.a {
			fill: #4661ad
		}

		.b {
			fill: #ff8b91
		}

		.c {
			stroke-miterlimit: 10
		}
		]]>
	</style>
	<defs>
		<linearGradient id="A" x1="271.07" y1="298.36" x2="281.76" y2="298.36" gradientUnits="userSpaceOnUse">
			<stop offset="0" stop-color="#4764e6" />
			<stop offset="1" stop-color="#511fd1" />
		</linearGradient>
		<linearGradient id="B" x1="278.72" y1="297.52" x2="291.34" y2="297.52" gradientUnits="userSpaceOnUse">
			<stop offset="0" stop-color="#4764e6" />
			<stop offset="1" stop-color="#694fff" />
		</linearGradient>
		<linearGradient id="C" x1="60.88" y1="197.68" x2="336.34" y2="197.68" xlink:href="#B" />
		<linearGradient id="D" x1="180.9" y1="139.43" x2="282.68" y2="139.43" xlink:href="#B" />
		<linearGradient id="E" x1="49.7" y1="299.55" x2="142.47" y2="299.55" xlink:href="#B" />
		<linearGradient id="F" x1="0" y1="260.01" x2="81.83" y2="260.01" xlink:href="#B" />
		<path id="G" d="M176.05 175.5v1.24l-3.9 2.27v-1.24l3.9-2.27z" />
		<path id="H" d="M172.15 177.78v1.24l-3.85-2.22v-1.24l3.85 2.22z" />
		<path id="I" d="M176.05 175.5l-3.9 2.27-3.85-2.22 3.9-2.27 3.85 2.22z" />
		<path id="J" d="M181 178.36l-.01 1.24-3.9 2.27.01-1.24 3.9-2.27z" />
		<path id="K" d="M177.1 180.63l-.01 1.24-3.84-2.22v-1.24l3.85 2.22z" />
		<path id="L" d="M190.84 184.05l-.01 1.24-3.9 2.26.01-1.24 3.9-2.26z" />
		<path id="M" d="M190.84 184.05l-3.9 2.26-3.85-2.22 3.9-2.26 3.85 2.22z" />
		<path id="N" d="M195.77 186.9v1.24l-3.9 2.26v-1.24l3.9-2.26z" />
		<path id="O" d="M191.87 189.16v1.24l-3.85-2.22.01-1.24 3.84 2.22z" />
		<path id="P" d="M206.66 197.7v1.24l-3.86-2.23v-1.24l3.86 2.23z" />
		<path id="Q" d="M230.27 206.82l-3.9 2.26-8.78-5.07 3.9-2.26 8.78 5.07z" />
		<path id="R" d="M200.65 195.47l-3.9 2.27-3.84-2.22 3.9-2.27 3.84 2.22z" />
		<path id="S" d="M197.96 93.64l-6.07-3.5v-1.5l6.07 3.5v1.5z" />
		<path id="T" d="M250.8 124.14l-48.96-28.26v-1.5l48.96 28.27v1.5z" />
		<path id="U" d="M271.3 135.98l-16.22-9.37v-1.5l16.22 9.37v1.5z" />
	</defs>
	<path
		d="M377.15 159.93l-136.2-78.5V76.8l136.2 78.5v4.63zm-145.72-19.88l-136.2-78.5v-4.63l136.2 78.5v4.63zm193.35-51.2L278.82 4.63V0l145.96 84.2v4.64zm-94.02-44.6l-51.94-29.96V9.65l51.94 29.96v4.63zm-121.7 8.8L157.1 23.07v-4.63l51.95 29.96v4.63zm-79.93-2.83l-42.1-24.3v-4.63l42.1 24.3v4.63zm221.62 65.96l-170.27-98.3v-4.63l170.27 98.3v4.63z"
		fill="#ebf0ff" />
	<path
		d="M271.07 248.07l5 100.83a2.4 2.4 0 0 0 1.11 1.9h0a2.4 2.4 0 0 0 3.69-2l.86-100.1a2.39 2.39 0 0 0-2.1-2.4l-5.9-.73a2.4 2.4 0 0 0-2.67 2.5z"
		fill="url(#A)" />
	<path
		d="M280.86 246.3l-2.14 103.53c0 2.06 4.48 1.6 6.15.38l.33-.25a2.52 2.52 0 0 0 1-1.91l5.1-100.34a2.53 2.53 0 0 0-1.95-2.59l-5.35-1.28a2.53 2.53 0 0 0-3.14 2.46z"
		fill="url(#B)" />
	<g class="Y">
		<path d="M332.65 219.18l3.7 1.4V225h-3.7v-5.83z" />
		<path
			d="M225.38 275.28L60.9 179.8l95-50.25a21.16 21.16 0 0 1 20.51.4l157.85 91.62a4.26 4.26 0 0 1-.15 7.45l-88.2 46.66a21.14 21.14 0 0 1-20.53-.41z" />
	</g>
	<path
		d="M225.37 270.34l-164.5-95.47 95-50.25a21.14 21.14 0 0 1 20.51.4l157.85 91.6a4.27 4.27 0 0 1-.15 7.46l-88.2 46.65a21.16 21.16 0 0 1-20.53-.4z"
		fill="url(#C)" />
	<g class="W">
		<path d="M234.62 207.4v2.1l-28.2 16.38.01-2.12 28.18-16.37z" />
		<path d="M206.44 223.78l-.01 2.12-62.38-36.02.01-2.1 62.38 36z" />
	</g>
	<path d="M234.62 207.4l-28.18 16.37-62.38-36 28.18-16.38 62.38 36.02z" fill="#eef8fc" />
	<g class="H">
		<g class="W">
			<use xlink:href="#G" />
			<use xlink:href="#H" />
		</g>
		<use xlink:href="#I" class="V" />
		<g class="W">
			<use xlink:href="#J" />
			<use xlink:href="#K" />
		</g>
		<use xlink:href="#I" x="4.95" y="2.86" class="V" />
		<g class="W">
			<use xlink:href="#G" x="9.85" y="5.7" />
			<use xlink:href="#H" x="9.85" y="5.69" />
		</g>
		<use xlink:href="#I" x="9.85" y="5.7" class="V" />
		<g class="W">
			<use xlink:href="#L" />
			<use xlink:href="#K" x="9.84" y="5.67" />
		</g>
		<use xlink:href="#M" class="V" />
		<g class="W">
			<use xlink:href="#N" />
			<use xlink:href="#O" />
		</g>
		<path d="M195.77 186.9l-3.9 2.26-3.84-2.22 3.9-2.26 3.84 2.22z" class="V" />
		<g class="W">
			<path d="M200.7 189.74v1.24l-3.9 2.27V192l3.9-2.27z" />
			<use xlink:href="#H" x="24.65" y="14.22" />
		</g>
		<use xlink:href="#I" x="24.65" y="14.24" class="V" />
		<g class="W">
			<path d="M205.63 192.6l-.01 1.23-3.9 2.27v-1.24l3.9-2.26z" />
			<use xlink:href="#O" x="9.85" y="5.69" />
		</g>
		<path d="M205.63 192.6l-3.9 2.26-3.84-2.22 3.9-2.27 3.85 2.23z" class="V" />
		<g class="W">
			<use xlink:href="#N" x="14.79" y="8.54" />
			<use xlink:href="#P" />
		</g>
		<path d="M210.56 195.44l-3.9 2.26-3.86-2.23 3.9-2.26 3.86 2.23z" class="V" />
		<g class="W">
			<use xlink:href="#L" x="24.66" y="14.23" />
			<use xlink:href="#K" x="34.5" y="19.91" />
		</g>
		<use xlink:href="#M" x="24.66" y="14.23" class="V" />
		<g class="W">
			<use xlink:href="#G" x="44.35" y="25.62" />
			<use xlink:href="#H" x="44.35" y="25.62" />
		</g>
		<use xlink:href="#I" x="44.35" y="25.62" class="V" />
		<g class="W">
			<use xlink:href="#N" x="34.5" y="19.92" />
			<path d="M226.37 209.08v1.24l-8.78-5.07V204l8.78 5.07z" />
		</g>
		<use xlink:href="#Q" class="V" />
		<g class="W">
			<path d="M176 181.25v1.24l-3.9 2.26.01-1.24 3.9-2.26z" />
			<path d="M172.12 183.5l-.01 1.24-8.78-5.07v-1.24l8.8 5.07z" />
		</g>
		<path d="M176 181.25l-3.9 2.26-8.8-5.07 3.9-2.26 8.78 5.07z" class="V" />
		<g class="W">
			<use xlink:href="#G" x="4.89" y="8.6" />
			<use xlink:href="#H" x="4.89" y="8.58" />
		</g>
		<use xlink:href="#I" x="4.89" y="8.6" class="V" />
		<g class="W">
			<use xlink:href="#L" x="-4.97" y="2.89" />
			<use xlink:href="#K" x="4.87" y="8.57" />
		</g>
		<use xlink:href="#M" x="-4.97" y="2.89" class="V" />
		<g class="W">
			<use xlink:href="#N" x="-4.97" y="2.9" />
			<use xlink:href="#O" x="-4.97" y="2.89" />
		</g>
		<path d="M190.8 189.8l-3.9 2.26-3.84-2.22 3.9-2.27 3.84 2.23z" class="V" />
		<g class="W">
			<use xlink:href="#J" x="14.73" y="14.27" />
			<path d="M191.83 194.9l-.01 1.24-3.84-2.23v-1.23l3.85 2.22z" />
		</g>
		<use xlink:href="#I" x="19.68" y="17.13" class="V" />
		<g class="W">
			<use xlink:href="#G" x="24.6" y="19.97" />
			<path d="M196.75 197.74v1.24l-3.85-2.22v-1.24l3.84 2.22z" />
		</g>
		<use xlink:href="#R" class="V" />
		<g class="W">
			<use xlink:href="#G" x="29.55" y="22.82" />
			<use xlink:href="#P" x="-4.96" y="2.9" />
		</g>
		<path d="M205.6 198.32l-3.9 2.27-3.86-2.23 3.9-2.26 3.86 2.22z" class="V" />
		<g class="W">
			<path d="M210.5 201.17v1.24l-3.9 2.26.01-1.24 3.9-2.26z" />
			<path d="M206.62 203.43l-.01 1.24-3.85-2.22.01-1.24 3.85 2.22z" />
		</g>
		<path d="M210.5 201.17l-3.9 2.26-3.85-2.22 3.9-2.26 3.84 2.22z" class="V" />
		<g class="W">
			<use xlink:href="#G" x="39.39" y="28.5" />
			<use xlink:href="#H" x="39.39" y="28.5" />
		</g>
		<use xlink:href="#I" x="39.39" y="28.5" class="V" />
		<g class="W">
			<use xlink:href="#J" x="39.38" y="28.5" />
			<path d="M216.48 209.13l-.01 1.24-3.85-2.23v-1.24l3.86 2.23z" />
		</g>
		<path d="M220.38 206.86l-3.9 2.27-3.86-2.23 3.9-2.27 3.86 2.23z" class="V" />
		<g class="W">
			<path d="M225.3 209.7v1.23l-3.9 2.27v-1.24l3.9-2.26z" />
			<use xlink:href="#O" x="29.53" y="22.81" />
		</g>
		<path d="M225.3 209.7l-3.9 2.26-3.84-2.22 3.9-2.27 3.84 2.23z" class="V" />
		<g class="W">
			<use xlink:href="#N" x="-24.73" y="-2.76" />
			<path d="M167.14 186.4v1.24l-8.78-5.07v-1.24l8.78 5.07z" />
		</g>
		<use xlink:href="#Q" x="-59.23" y="-22.68" class="V" />
		<g class="W">
			<use xlink:href="#G" x="-0.08" y="11.48" />
			<use xlink:href="#H" x="-0.08" y="11.47" />
		</g>
		<use xlink:href="#I" x="-0.08" y="11.48" class="V" />
		<g class="W">
			<path d="M180.9 189.82v1.25l-3.9 2.26v-1.24l3.9-2.27z" />
			<path d="M177 192.1v1.24l-3.84-2.22v-1.24l3.85 2.22z" />
		</g>
		<use xlink:href="#I" x="4.85" y="14.32" class="V" />
		<g class="W">
			<path d="M185.83 192.68v1.23l-3.9 2.27v-1.24l3.9-2.26z" />
			<use xlink:href="#H" x="9.78" y="17.16" />
		</g>
		<path d="M185.83 192.68l-3.9 2.26-3.85-2.22 3.9-2.27 3.85 2.23z" class="V" />
		<g class="W">
			<path d="M190.76 195.52l-.01 1.24-3.9 2.27.01-1.25 3.9-2.26z" />
			<path d="M186.86 197.78l-.01 1.25-3.84-2.23v-1.24l3.85 2.22z" />
		</g>
		<use xlink:href="#M" x="-0.08" y="11.47" class="V" />
		<g class="W">
			<use xlink:href="#G" x="19.63" y="22.86" />
			<use xlink:href="#O" x="-0.09" y="11.47" />
		</g>
		<use xlink:href="#R" x="-4.97" y="2.89" class="V" />
		<g class="W">
			<use xlink:href="#G" x="24.57" y="25.7" />
			<use xlink:href="#P" x="-9.94" y="5.78" />
		</g>
		<path d="M200.62 201.2l-3.9 2.27-3.86-2.23 3.9-2.26 3.86 2.22z" class="V" />
		<g class="W">
			<use xlink:href="#N" x="9.77" y="17.16" />
			<path d="M201.64 206.32v1.24l-3.85-2.22v-1.24l3.84 2.22z" />
		</g>
		<path d="M205.54 204.06l-3.9 2.26-3.84-2.22 3.9-2.26 3.84 2.22z" class="V" />
		<g class="W">
			<use xlink:href="#G" x="34.42" y="31.4" />
			<path d="M206.57 209.17v1.24l-3.85-2.22v-1.25l3.85 2.23z" />
		</g>
		<path d="M210.47 206.9l-3.9 2.27-3.85-2.23 3.9-2.26 3.85 2.22z" class="V" />
		<g class="W">
			<use xlink:href="#G" x="44.28" y="37.1" />
			<path d="M216.43 214.86v1.24l-8.78-5.07v-1.24l8.78 5.07z" />
		</g>
		<path d="M220.33 212.6l-3.9 2.27-8.78-5.07 3.9-2.27 8.78 5.07z" class="V" />
		<g class="W">
			<use xlink:href="#N" x="-24.77" y="2.98" />
			<path d="M167.1 192.14v1.24l-13.7-7.9v-1.24l13.7 7.9z" />
		</g>
		<path d="M171 189.88l-3.9 2.26-13.7-7.9 3.9-2.27 13.7 7.92z" class="V" />
		<g class="W">
			<path d="M175.9 192.72v1.24l-3.9 2.27V195l3.9-2.27z" />
			<path d="M172 195v1.24l-3.85-2.23.01-1.24L172 195z" />
		</g>
		<path d="M175.9 192.72L172 195l-3.84-2.23 3.9-2.26 3.84 2.22z" class="V" />
		<g class="W">
			<use xlink:href="#G" x="4.8" y="20.07" />
			<path d="M176.95 197.84v1.24l-3.85-2.23v-1.24l3.85 2.23z" />
		</g>
		<path d="M180.85 195.57l-3.9 2.27-3.85-2.23 3.9-2.26 3.85 2.22z" class="V" />
		<g class="W">
			<use xlink:href="#J" x="4.78" y="20.04" />
			<use xlink:href="#K" x="4.78" y="20.05" />
		</g>
		<use xlink:href="#I" x="9.73" y="22.9" class="V" />
		<g class="W">
			<use xlink:href="#N" x="-5.07" y="14.36" />
			<use xlink:href="#O" x="-5.07" y="14.36" />
		</g>
		<path d="M190.7 201.26l-3.9 2.26-3.84-2.22 3.9-2.26 3.85 2.22z" class="V" />
		<g class="W">
			<use xlink:href="#L" x="4.8" y="20.05" />
			<path d="M191.74 206.37l-.01 1.24-3.85-2.22v-1.24l3.86 2.22z" />
		</g>
		<path d="M195.64 204.1l-3.9 2.26-3.86-2.22 3.9-2.27 3.86 2.23z" class="V" />
		<g class="W">
			<use xlink:href="#G" x="24.51" y="31.45" />
			<use xlink:href="#O" x="4.79" y="20.06" />
		</g>
		<use xlink:href="#R" x="-0.09" y="11.48" class="V" />
		<g class="W">
			<use xlink:href="#G" x="29.45" y="34.3" />
			<use xlink:href="#H" x="29.45" y="34.28" />
		</g>
		<use xlink:href="#I" x="29.45" y="34.3" class="V" />
		<g class="W">
			<use xlink:href="#N" x="19.58" y="28.6" />
			<path d="M211.45 217.75V219l-8.8-5.07.01-1.24 8.78 5.07z" />
		</g>
		<use xlink:href="#Q" x="-14.92" y="8.68" class="V" />
		<g class="W">
			<use xlink:href="#J" x="-24.84" y="8.71" />
			<use xlink:href="#K" x="-24.84" y="8.71" />
		</g>
		<use xlink:href="#I" x="-19.89" y="11.57" class="V" />
		<g class="W">
			<use xlink:href="#G" x="-14.95" y="14.42" />
			<use xlink:href="#H" x="-14.95" y="14.42" />
		</g>
		<path d="M161.1 189.92l-3.9 2.27-3.85-2.22 3.9-2.27 3.84 2.22z" class="V" />
		<g class="W">
			<path d="M166.02 192.76L166 194l-3.9 2.27v-1.24l3.9-2.27z" />
			<use xlink:href="#H" x="-10.03" y="17.25" />
		</g>
		<use xlink:href="#I" x="-10.03" y="17.26" class="V" />
		<g class="W">
			<use xlink:href="#L" x="-0.17" y="22.95" />
			<path d="M186.77 209.26l-.01 1.24-23.57-13.6v-1.24l23.57 13.6z" />
		</g>
		<path d="M190.67 207l-3.9 2.26-23.57-13.6 3.9-2.26 23.57 13.6z" class="V" />
		<g class="W">
			<use xlink:href="#G" x="19.55" y="34.34" />
			<path d="M191.7 212.1v1.24l-3.85-2.22v-1.25l3.85 2.23z" />
		</g>
		<path d="M195.6 209.84l-3.9 2.27-3.85-2.23 3.9-2.26 3.84 2.22z" class="V" />
		<g class="W">
			<path d="M200.52 212.68l-.01 1.24-3.9 2.27v-1.24l3.9-2.27z" />
			<use xlink:href="#H" x="24.47" y="37.17" />
		</g>
		<use xlink:href="#I" x="24.47" y="37.18" class="V" />
		<g class="W">
			<use xlink:href="#N" x="14.61" y="31.48" />
			<path d="M206.48 220.64v1.24l-8.8-5.07v-1.24l8.78 5.07z" />
		</g>
		<use xlink:href="#Q" x="-19.89" y="11.56" class="V" />
	</g>
	<g class="X">
		<ellipse cx="248.78" cy="235.44" rx="13.31" ry="7.68" />
		<path d="M235.47 213.2h26.6v22.25h-26.6z" />
	</g>
	<ellipse cx="248.78" cy="213.19" rx="13.31" ry="7.68" class="V" />
	<path
		d="M258.9 214.84a6.84 6.84 0 0 1-2.47 2 18.44 18.44 0 0 1-15 0 6.71 6.71 0 0 1-2.46-2c-1.37-1.92-.55-4.16 2.46-5.7a18.44 18.44 0 0 1 15 0c3 1.54 3.83 3.78 2.47 5.7z"
		fill="#ebebeb" />
	<path
		d="M258.9 214.84a6.84 6.84 0 0 1-2.47 2 18.44 18.44 0 0 1-15 0 6.71 6.71 0 0 1-2.46-2 6.71 6.71 0 0 1 2.46-2 18.44 18.44 0 0 1 15 0 6.84 6.84 0 0 1 2.47 2z"
		fill="#544438" />
	<path d="M149.43 173.74L116.98 155l45.9-26.5 32.46 18.74-45.9 26.5z" class="V" />
	<path d="M150.1 167.4l-29.3-16.92 41.45-23.93 29.3 16.92-41.44 23.93z" class="a" />
	<path d="M215.9 110.84v4.92l11.43 6.4v-5.66l-11.43-5.66z" class="V" />
	<g class="Y">
		<path d="M218.67 194.1l-21.17-12.23a2 2 0 0 1 0-3.54l24.1-13.9 27.17 15.68-24.24 14a5.86 5.86 0 0 1-5.87 0z" />
		<path
			d="M184.2 69l-3.1 2.1 3 76.6 98.27 60.1 2.8-1.9a1.59 1.59 0 0 0 .7-1.31v-76a2.41 2.41 0 0 0-1.21-2.09L185.1 69a.84.84 0 0 0-.89 0z" />
	</g>
	<path
		d="M281.18 128.4a3 3 0 0 1 1.5 2.6v76a.89.89 0 0 1-1.33.77l-98.07-56.63a4.73 4.73 0 0 1-2.38-4.14V71.6a.63.63 0 0 1 .95-.55"
		fill="url(#D)" />
	<path d="M180.9 135.27V74.33l101.66 58.7.12 61-101.78-58.77z" class="V" />
	<use xlink:href="#S" class="X" />
	<g class="Z">
		<use xlink:href="#T" />
		<use xlink:href="#U" />
	</g>
	<use xlink:href="#S" y="4.92" class="X" />
	<g class="Z">
		<path d="M250.8 129.07l-48.96-28.27v-1.5l48.96 28.27v1.5z" />
		<use xlink:href="#U" y="4.92" />
	</g>
	<use xlink:href="#S" y="9.86" class="X" />
	<path d="M240.84 128.24l-39-22.52v-1.5l39 22.52v1.5zm30.46 17.6l-26.46-15.28v-1.5l26.46 15.3v1.5z" class="Z" />
	<use xlink:href="#S" y="14.76" class="X" />
	<g class="Z">
		<path d="M257.88 143l-56.04-32.36v-1.5l56.04 32.35v1.5z" />
		<path d="M271.3 150.75l-16.22-9.36v-1.5l16.22 9.37v1.5z" />
	</g>
	<use xlink:href="#S" y="19.7" class="X" />
	<g class="Z">
		<use xlink:href="#T" y="19.7" />
		<use xlink:href="#U" y="19.7" />
	</g>
	<use xlink:href="#S" y="24.62" class="X" />
	<path
		d="M236.68 140.64l-34.84-20.14V119l34.84 20.13v1.5zm34.62 19.96l-2.78-1.6v-1.5l2.78 1.6v1.5zm-6.85-3.95l-9.38-5.4v-1.5l9.38 5.4v1.5z"
		class="Z" />
	<use xlink:href="#S" y="29.56" class="X" />
	<path d="M243.3 149.38l-41.47-23.95v-1.5l41.47 23.95v1.5zm28 16.15l-23.97-13.84v-1.5l23.97 13.84v1.5z" class="Z" />
	<use xlink:href="#S" y="34.46" class="X" />
	<path d="M225.24 143.87l-23.4-13.52v-1.5l23.4 13.5v1.5zm46.06 26.6l-41.5-23.96V145l41.48 23.95v1.5z" class="Z" />
	<use xlink:href="#S" y="39.4" class="X" />
	<path d="M250.8 163.55l-48.96-28.27v-1.5l48.96 28.26v1.5zm20.5 11.83L255.07 166v-1.5l16.22 9.37v1.5z" class="Z" />
	<g class="Y">
		<path d="M297.34 100.33l-60.3-33.7v-38.5l60.3 33.7v38.5z" />
		<path d="M314.58 110.17l-60-34.05-.56-38.5 60.86 33.68-.3 38.87z" />
	</g>
	<path
		d="M282.5 70.1v3.34l-7.57-4.2v7.57L271.6 75V67.4L264 63.2v-3.33l7.57 4.2v-7.58l3.34 1.85v7.58zm22.7 12.6V86l-7.57-4.2v7.6l-3.34-1.85V80l-7.57-4.2v-3.37l7.57 4.2v-7.57l3.34 1.85v7.57zm-45.93-17.44a1 1 0 0 1 .36.4l1 1.8a3.6 3.6 0 0 1-2.48.72 8.38 8.38 0 0 1-3.53-1.28 14.24 14.24 0 0 1-3.27-2.6 17.2 17.2 0 0 1-2.5-3.47 18 18 0 0 1-1.6-4 16.6 16.6 0 0 1-.57-4.3 9.64 9.64 0 0 1 .6-3.63 4.36 4.36 0 0 1 1.67-2.13 4 4 0 0 1 2.58-.53 8.23 8.23 0 0 1 3.31 1.19A13.63 13.63 0 0 1 258 49.9a18.28 18.28 0 0 1 2.4 3.16l-.8.85a.36.36 0 0 1-.21.13.55.55 0 0 1-.31-.09 2 2 0 0 1-.52-.55 12.82 12.82 0 0 0-.78-1 13.14 13.14 0 0 0-1.18-1.25 9.4 9.4 0 0 0-1.76-1.27 5.58 5.58 0 0 0-2.27-.81 2.65 2.65 0 0 0-1.78.42 3.23 3.23 0 0 0-1.15 1.64 8.36 8.36 0 0 0-.41 2.86 13.33 13.33 0 0 0 .42 3.36 13.8 13.8 0 0 0 1.18 3 12.53 12.53 0 0 0 1.77 2.47 9.73 9.73 0 0 0 2.2 1.76 11.14 11.14 0 0 0 1.29.65 5.24 5.24 0 0 0 1.06.3 2.54 2.54 0 0 0 .91 0 3 3 0 0 0 .84-.26.45.45 0 0 1 .2 0 .49.49 0 0 1 .18 0z"
		class="X" />
	<g class="a">
		<path d="M373.57 219.32l-41.45-23.2v-38.5l41.45 23.2v38.5z" />
		<path d="M387.57 227.14l-41.45-23.2v-38.5l41.45 23.2v38.5z" />
	</g>
	<path
		d="M376.47 197.1l-2.52-1.4-1.26 5.58 3.15 1.74v2.43l-3.63-2-1 4.56-2.58-1.43 1-4.56-3.8-2.1-1 4.56-2.63-1.48 1-4.57-2.1-1.16v-2.43l2.58 1.43 1.26-5.58-3.2-1.7v-2.43l3.7 2 1-4.36 2.58 1.43-1 4.36 3.8 2.1 1-4.35 2.6 1.44-1 4.36 2 1.13zm-6.36 2.75l1.23-5.6-3.8-2.1-1.23 5.58zm-14.84-4.6a1 1 0 0 1 .36.4l1 1.8a3.6 3.6 0 0 1-2.48.72 8.38 8.38 0 0 1-3.53-1.28 14.24 14.24 0 0 1-3.27-2.6 17.2 17.2 0 0 1-2.5-3.47 18 18 0 0 1-1.6-4 16.6 16.6 0 0 1-.57-4.3 9.64 9.64 0 0 1 .6-3.63 4.36 4.36 0 0 1 1.67-2.13 4 4 0 0 1 2.58-.53 8.23 8.23 0 0 1 3.31 1.19 13.63 13.63 0 0 1 3.15 2.49 18.28 18.28 0 0 1 2.4 3.16l-.8.85a.36.36 0 0 1-.21.13.55.55 0 0 1-.31-.09 2 2 0 0 1-.52-.55 12.82 12.82 0 0 0-.78-1 13.14 13.14 0 0 0-1.18-1.25 9.4 9.4 0 0 0-1.76-1.27 5.58 5.58 0 0 0-2.27-.81 2.65 2.65 0 0 0-1.78.42 3.23 3.23 0 0 0-1.15 1.64 8.36 8.36 0 0 0-.41 2.86 13.33 13.33 0 0 0 .42 3.36 13.8 13.8 0 0 0 1.18 3 12.53 12.53 0 0 0 1.77 2.47 9.73 9.73 0 0 0 2.2 1.76 11.14 11.14 0 0 0 1.29.65 5.24 5.24 0 0 0 1.06.3 2.54 2.54 0 0 0 .91 0 3 3 0 0 0 .84-.26.45.45 0 0 1 .2 0 .49.49 0 0 1 .19-.02z"
		class="Z" />
	<path d="M430.57 104.32l-41.45-23.2V42.6l41.45 23.2v38.5z" class="Y" />
	<path
		d="M405.8 74a9 9 0 0 1-.35 2.69 3.08 3.08 0 0 1-1 1.58 2.25 2.25 0 0 1-1.66.41 5.64 5.64 0 0 1-2.27-.84 14.46 14.46 0 0 1-2.39-1.75l.14-1.6a.39.39 0 0 1 .16-.31c.08 0 .22 0 .4.08a3.9 3.9 0 0 1 .53.42 5.55 5.55 0 0 0 .9.64 3.73 3.73 0 0 0 1.31.5 1.22 1.22 0 0 0 1-.24 2 2 0 0 0 .6-1 7.45 7.45 0 0 0 .2-1.9v-12.6l2.47 1.42zm12.52-2.14a.47.47 0 0 1-.24.2.51.51 0 0 1-.33-.08 1.92 1.92 0 0 1-.47-.5l-.67-.88a10.83 10.83 0 0 0-.95-1 7 7 0 0 0-1.33-1 4.24 4.24 0 0 0-1.28-.52 1.61 1.61 0 0 0-.92.07 1.08 1.08 0 0 0-.56.57 2.33 2.33 0 0 0-.19 1 3.31 3.31 0 0 0 .34 1.48 7.38 7.38 0 0 0 .89 1.39 17.47 17.47 0 0 0 1.27 1.35l1.44 1.4 1.45 1.5a12 12 0 0 1 1.23 1.65 9 9 0 0 1 .9 1.91 6.83 6.83 0 0 1 .34 2.21 5.6 5.6 0 0 1-.38 2.16 2.65 2.65 0 0 1-1.09 1.31 2.81 2.81 0 0 1-1.77.28 6.59 6.59 0 0 1-2.37-.9 11.36 11.36 0 0 1-1.55-1.08 13.82 13.82 0 0 1-1.4-1.37 16 16 0 0 1-2.3-3.15l.7-1a.58.58 0 0 1 .25-.12.54.54 0 0 1 .33.08 1.94 1.94 0 0 1 .56.62l.8 1.1a15.09 15.09 0 0 0 1.12 1.29 7.22 7.22 0 0 0 1.6 1.21 4.45 4.45 0 0 0 1.36.56 1.59 1.59 0 0 0 1-.08 1.36 1.36 0 0 0 .64-.69 3.13 3.13 0 0 0 .22-1.24 3.79 3.79 0 0 0-.34-1.57 6.76 6.76 0 0 0-.89-1.41 14.16 14.16 0 0 0-1.26-1.34L413 75.9l-1.45-1.47a11.42 11.42 0 0 1-1.26-1.67 8.59 8.59 0 0 1-.89-2 8 8 0 0 1-.34-2.36 4.33 4.33 0 0 1 .35-1.79 2.31 2.31 0 0 1 1-1.12 2.7 2.7 0 0 1 1.64-.24 5.94 5.94 0 0 1 2.23.83 12 12 0 0 1 2.57 2 14 14 0 0 1 2 2.65z"
		class="V" />
	<path d="M140.57 102.32l-41.45-23.2V40.6l41.45 23.2v38.5z" class="Y" />
	<path
		d="M129.32 70.86a.47.47 0 0 1-.24.2.51.51 0 0 1-.33-.08 1.92 1.92 0 0 1-.47-.5l-.67-.88a10.83 10.83 0 0 0-1-1 7 7 0 0 0-1.33-1 4.24 4.24 0 0 0-1.28-.52 1.61 1.61 0 0 0-.92.07 1.08 1.08 0 0 0-.56.57 2.33 2.33 0 0 0-.19 1 3.31 3.31 0 0 0 .34 1.48 7.38 7.38 0 0 0 .89 1.39 17.47 17.47 0 0 0 1.27 1.35l1.44 1.4 1.45 1.5a12 12 0 0 1 1.28 1.65 9 9 0 0 1 .9 1.91 6.83 6.83 0 0 1 .34 2.21 5.6 5.6 0 0 1-.38 2.16 2.65 2.65 0 0 1-1.09 1.31 2.81 2.81 0 0 1-1.77.28 6.59 6.59 0 0 1-2.37-.9 11.36 11.36 0 0 1-1.55-1.08 13.82 13.82 0 0 1-1.4-1.37 16 16 0 0 1-2.3-3.15l.7-1a.58.58 0 0 1 .25-.12.54.54 0 0 1 .33.08 1.94 1.94 0 0 1 .56.62l.8 1.1a15.09 15.09 0 0 0 1.12 1.29 7.22 7.22 0 0 0 1.6 1.21 4.45 4.45 0 0 0 1.36.56 1.59 1.59 0 0 0 1-.08 1.36 1.36 0 0 0 .64-.69 3.13 3.13 0 0 0 .22-1.24 3.79 3.79 0 0 0-.34-1.57 6.76 6.76 0 0 0-.89-1.41 14.16 14.16 0 0 0-1.26-1.34L124 74.9l-1.45-1.47a11.42 11.42 0 0 1-1.26-1.67 8.59 8.59 0 0 1-.89-2 8 8 0 0 1-.34-2.36 4.33 4.33 0 0 1 .35-1.79 2.31 2.31 0 0 1 1-1.12 2.7 2.7 0 0 1 1.64-.24 5.94 5.94 0 0 1 2.23.83 12 12 0 0 1 2.57 2 14 14 0 0 1 2 2.65zm-9.98-6.42l-5.28-3V78.2l-2.45-1.42V60l-5.3-3.07v-2.4l13 7.52z"
		class="V" />
	<g class="Y">
		<path
			d="M67.68 382.7a8.19 8.19 0 0 1-3.68 6.42c-2 1.2-3.7.23-3.7-2.14a8.21 8.21 0 0 1 3.71-6.43c2-1.18 3.68-.22 3.68 2.15z" />
		<path
			d="M64.63 380.8a8.17 8.17 0 0 1-1.56 7.21c-1.6 1.76-3.46 1.35-4.2-.9a8.23 8.23 0 0 1 1.57-7.26c1.55-1.7 3.46-1.3 4.18.95zm67.93-64.28s.4 12.5 2.12 16.9 5.95 4 9.22 3.65 11.54-6.3 15.57-10.17 12.5-3.12 19.23-12.62 0-13.54-2.12-13.73-13.22 8.7-22 5.2z" />
	</g>
	<path
		d="M48.94 253.53S120.45 230 134 239.7c12.7 9.1 10.65 36.44 20.56 66a3.18 3.18 0 0 1-.1 2.33c-1.52 3.47-7.12 12.9-22.12 10.45a437 437 0 0 1-14-44.25S62.7 310.17 50 300.87s-1.06-47.34-1.06-47.34z"
		fill="#425ca3" />
	<g class="Y">
		<path
			d="M19.74 355.8l47-8.27-4.27 34.98 4.27 1.07 8.28-36.05 43.8 18.02 2.4-2.58-41.66-19.72 31.52-14.42-3.48-1.6-34.92 11.92-18.5-11.92-4.72 1.07 16.74 13.9-45.4 10.14-1.07 3.47z" />
		<path
			d="M25.7 351a8.19 8.19 0 0 1-3.69 6.42c-2.05 1.18-3.7.22-3.7-2.14a8.19 8.19 0 0 1 3.71-6.43c2-1.18 3.7-.23 3.7 2.15z" />
		<path
			d="M27.37 352a8.23 8.23 0 0 1-3.71 6.43c-2.05 1.18-3.7.22-3.7-2.15a8.23 8.23 0 0 1 3.71-6.43c2.05-1.22 3.7-.26 3.7 2.15zm95.5 9.75a8.19 8.19 0 0 1-3.71 6.43c-2.05 1.2-3.72.23-3.72-2.14a8.22 8.22 0 0 1 3.72-6.43c2.05-1.18 3.7-.22 3.7 2.14z" />
		<path
			d="M120.8 360.4a8.19 8.19 0 0 1-3.71 6.43c-2 1.18-3.7.22-3.7-2.14a8.19 8.19 0 0 1 3.71-6.43c2.05-1.2 3.7-.25 3.7 2.14zm-53-37.16h8.43v20.63H67.8zm99.56 3.96s.4 12.5 2.12 16.92 6 4 9.22 3.65 11.54-6.32 15.57-10.18 12.5-3.12 19.22-12.62 0-13.53-2.1-13.72-12.7 7.75-21.4 4.28z" />
	</g>
	<path
		d="M83.92 262.2s71.5-23.54 85.1-13.82c12.87 9.2 10.6 37.12 20.94 67.14 0 0-4.32 14.67-22.6 11.68a437 437 0 0 1-14-44.25S97.7 318.85 85 309.55s-1.08-47.34-1.08-47.34z"
		class="a" />
	<path
		d="M142.4 292.77c-2.52 13.62-25.72 30.26-66.08 36.3-1.4.22-14.82 2.86-26.63.54 7.42-14.22 27-37.83 20.86-61.1 14.44 2.25 74.05 12.28 71.85 24.24z"
		fill="url(#E)" />
	<path d="M70.48,271.58l8.58,8.82c2,12.16,9.37,24,20.58,24.93l57.45-19.64v-20Z" class="a" />
	<path
		d="M89.88 182.37L60.1 167.3a21.17 21.17 0 0 0-9.89-2.36c-6.3.08-15.42 2.18-19 12.9-5.68 17.07 12.74 86.42 12.74 86.42s18.5 22.9 33.13 21.8 35.68-13.4 35.68-23.7c0-7.34-5.7-41.9-9-61.12a26 26 0 0 0-13.87-18.87z"
		class="Y" />
	<path d="M103.87,138.55c.17,0,3.82.87,5.75,1.34a1,1,0,0,1,.68,1.38l-1.24,2.78a2.65,2.65,0,0,1-2.41,1.56h-4.32"
		fill="none" stroke="#0b246e" stroke-width=".75" class="c" />
	<path
		d="M65.1 164.8l3.07-19.95 38.68-22.4v15.12a6.8 6.8 0 0 1-.48 2.52l-.74 1.93a6.16 6.16 0 0 0-.33 3.32l.28 1.68a6.83 6.83 0 0 1-.44 3.84l-3.48 8.27A6.42 6.42 0 0 1 95 163l-5.5-.66-2.3 12.28z"
		class="b" />
	<path
		d="M67.23 155.65L74 157a11.26 11.26 0 0 0 9.68-2.6l9.18-8.13v2.22l1.47-.28a3.6 3.6 0 0 0 2.78-2.5l3.55-11.7s9.9-.84 12.8-13c0 0-10.86-10.72-26.46-9.6a25.77 25.77 0 0 0-21.31 14.07s-3.34-.42-4.87 3.76c-1.24 3.38 2.3 18.2 3.7 23.78a3.47 3.47 0 0 0 2.7 2.63z"
		class="Y" />
	<path d="M92.37 151.34L93.6 145s-1.3-3.1-4.28-1.87-1.72 9 0 9.25a4.15 4.15 0 0 0 3.04-1.04z" class="b" />
	<path d="M93.6 144.97l16.1-.96 1.02-2.55-18.3 1.98 1.18 1.53z" class="X" />
	<path
		d="M81.68,296.19c2.22,22.75-20.83,40-41.83,31-19.57-8.41-33.92-27.08-38.18-59.32-4.75-35.9,1.67-58.62,6.38-69.66a13,13,0,0,1,13.71-7.69c45.08,6.28,56.34,80.34,56.34,80.34S80.36,282.65,81.68,296.19Z"
		fill="url(#F)" />
	<path
		d="M121.1 192.3s5.45-10.7 7.13-11.74 15.52-1.47 16.78-1.68 3.78 2.52 3.78 2.52 7.13-.2 8 0 .63 4.18-1.26 4.2a26.22 26.22 0 0 0-5.5 1.12l-4.36 5.6s-7.34 4.83-8.6 4.83-10.06 1.68-10.06 1.68zm47.6 15.18s5.45-10.7 7.13-11.75 15.52-1.47 16.78-1.68 3.78 2.52 3.78 2.52l2.67 1.67a2.77 2.77 0 0 1 .13 4.62l-5.95 4.62s-7.34 4.82-8.6 4.82-10.07 1.7-10.07 1.7z"
		class="b" />
	<g class="Y">
		<path
			d="M77.07 213.57l48.4 27.35a17 17 0 0 0 17.72-.62L180 213.2s-1.8-9.2-8.9-11.3c-1.48-.43-33.1 11.05-33.1 11.05a6.52 6.52 0 0 1-6.45-.69l-36.8-26.72-17.67 23.93" />
		<path
			d="M86.83 196.27L122.4 188c7.3 0 8.37 10.42 8.37 10.42l-24.52 17.38zm25.92 129.2a8.21 8.21 0 0 1-3.75 6.43c-2.05 1.18-3.72.22-3.72-2.15a8.2 8.2 0 0 1 3.72-6.42c2.1-1.2 3.75-.23 3.75 2.14z" />
		<ellipse cx="107.33" cy="326.63" rx="5.25" ry="3.03" transform="matrix(.5 -.866025 .866025 .5 -229.2 256.26)" />
	</g>
	<path
		d="M142.4 292.77c-43.9 24.94-57 6.77-60.58-2a20.28 20.28 0 0 1-1.22-4s-8.9-46.15-20.85-67.47c-10.06-18-23.5-29.93-44.4-30.57"
		fill="none" stroke="#fff" stroke-linecap="round" stroke-width="4" class="c" />
	<path d="M65.44 161.57l-5.35 5.7 29.8 15.1-2.08-10.98-22.36-9.82z" class="a" />
</svg>