<svg xmlns="http://www.w3.org/2000/svg" xmlns:xlink="http://www.w3.org/1999/xlink" width="200" height="200" viewBox="0 0 200 200">
  <defs>
    <clipPath id="clip-photoswipe">
      <rect width="200" height="200"/>
    </clipPath>
  </defs>
  <g id="photoswipe" clip-path="url(#clip-photoswipe)">
    <rect width="200" height="200" fill="#fff"/>
    <path id="Path_323" data-name="Path 323" d="M-71.052-87.42H-32.86q14.012,0,21.824,7.006T-3.224-60.76q0,12.648-7.812,19.716T-32.86-33.976h-22.2V0h-16Zm36.208,41.168q16.492,0,16.492-14.384,0-7.316-4.092-10.85t-12.4-3.534H-55.056v28.768ZM40.424,1.116A63.351,63.351,0,0,1,21.576-1.612,43.685,43.685,0,0,1,6.7-9.3l5.332-11.656a43.752,43.752,0,0,0,13.33,7.068,49.791,49.791,0,0,0,15.19,2.232q9.052,0,13.95-3.162a9.988,9.988,0,0,0,4.9-8.866,8.262,8.262,0,0,0-4.526-7.564q-4.526-2.6-15.066-4.96a89.245,89.245,0,0,1-17.732-5.456A25.038,25.038,0,0,1,11.78-49.6Q8.308-54.436,8.308-61.876A23.568,23.568,0,0,1,12.524-75.64a27.765,27.765,0,0,1,11.9-9.486,43.358,43.358,0,0,1,17.732-3.41,54.552,54.552,0,0,1,17.484,2.79,38.016,38.016,0,0,1,13.64,7.626L67.952-66.464a40.384,40.384,0,0,0-25.792-9.3q-8.432,0-13.33,3.41a10.918,10.918,0,0,0-4.9,9.486,8.7,8.7,0,0,0,4.34,7.812q4.34,2.728,14.756,5.084a99.286,99.286,0,0,1,17.918,5.518,26.574,26.574,0,0,1,10.54,7.75,18.834,18.834,0,0,1,3.658,11.9A23.168,23.168,0,0,1,70.99-11.1,26.159,26.159,0,0,1,58.962-2.046,49.589,49.589,0,0,1,40.424,1.116Z" transform="translate(98.052 143.536)" fill="#f0db4f"/>
  </g>
</svg>
