<svg xmlns="http://www.w3.org/2000/svg" xmlns:xlink="http://www.w3.org/1999/xlink" width="200" height="200" viewBox="0 0 200 200">
  <defs>
    <clipPath id="clip-reselect">
      <rect width="200" height="200"/>
    </clipPath>
  </defs>
  <g id="reselect" clip-path="url(#clip-reselect)">
    <rect width="200" height="200" fill="#fff"/>
    <path id="Path_319" data-name="Path 319" d="M.248,0h-17.36l-15-27.9a12.723,12.723,0,0,0-5.208-5.58,16.842,16.842,0,0,0-7.812-1.612H-57.288V0H-73.036V-87.42h38.688q14.88,0,22.63,6.634t7.75,19.158q0,10.044-5.642,16.554T-25.544-36.58q6.944,1.86,11.16,9.8ZM-36.58-47.368q9.052,0,13.268-3.41T-19.1-61.256q0-7.192-4.216-10.478T-36.58-75.02H-57.412v27.652ZM42.408,1.116A63.351,63.351,0,0,1,23.56-1.612,43.685,43.685,0,0,1,8.68-9.3l5.332-11.656a43.752,43.752,0,0,0,13.33,7.068,49.791,49.791,0,0,0,15.19,2.232q9.052,0,13.95-3.162a9.988,9.988,0,0,0,4.9-8.866,8.262,8.262,0,0,0-4.526-7.564q-4.526-2.6-15.066-4.96a89.245,89.245,0,0,1-17.732-5.456A25.038,25.038,0,0,1,13.764-49.6q-3.472-4.836-3.472-12.276A23.568,23.568,0,0,1,14.508-75.64a27.765,27.765,0,0,1,11.9-9.486,43.358,43.358,0,0,1,17.732-3.41,54.552,54.552,0,0,1,17.484,2.79,38.016,38.016,0,0,1,13.64,7.626L69.936-66.464a40.384,40.384,0,0,0-25.792-9.3q-8.432,0-13.33,3.41a10.918,10.918,0,0,0-4.9,9.486,8.7,8.7,0,0,0,4.34,7.812q4.34,2.728,14.756,5.084A99.286,99.286,0,0,1,62.93-44.454,26.574,26.574,0,0,1,73.47-36.7a18.834,18.834,0,0,1,3.658,11.9,23.168,23.168,0,0,1-4.154,13.7A26.159,26.159,0,0,1,60.946-2.046,49.589,49.589,0,0,1,42.408,1.116Z" transform="translate(98.036 143.536)" fill="#764abc"/>
  </g>
</svg>
