<?xml version="1.0" encoding="utf-8"?>
<svg version="1.1" xmlns="http://www.w3.org/2000/svg" xmlns:xlink="http://www.w3.org/1999/xlink" x="0px" y="0px" viewBox="0 0 268.8 268.8" style="enable-background:new 0 0 268.8 268.8;" xml:space="preserve">
	<linearGradient id="arrow-selected" x1="0%" y1="0%" x2="0%" y2="100%">
		<stop offset="0%" style="stop-color: #4764e6; stop-opacity:1;" />
		<stop offset="100%" style="stop-color: #694fff; stop-opacity:1;" />
	</linearGradient>
	<style type="text/css">
		.arrow{fill: url(#arrow-selected);}
	</style>
	<g>
		<path class="arrow" d="M143.3,265.2l80-80c4.9-4.9,4.9-12.8,0-17.7s-12.8-4.9-17.7,0l-58.7,58.7V57.5c0-6.9-5.6-12.5-12.5-12.5
			c-6.9,0-12.5,5.6-12.5,12.5v168.7l-58.7-58.7c-4.9-4.9-12.8-4.9-17.7,0c-2.4,2.4-3.7,5.6-3.7,8.8s1.2,6.4,3.7,8.8l80,80
			C130.5,270.1,138.4,270.1,143.3,265.2z"/>
	</g>
</svg>
