<svg xmlns="http://www.w3.org/2000/svg" xmlns:xlink="http://www.w3.org/1999/xlink" viewBox="0 0 430.57 389.62"><defs><style>.cls-1{fill:#ebf0ff;}.cls-2{fill:url(#Gradient_bez_nazwy_16);}.cls-3{fill:url(#Gradient_bez_nazwy_6);}.cls-4{fill:#0b246e;}.cls-5{fill:url(#Gradient_bez_nazwy_6-2);}.cls-6{fill:#d7ecfa;}.cls-7{fill:#eef8fc;}.cls-8{isolation:isolate;}.cls-9{fill:#fff;}.cls-10{fill:#36e7f7;}.cls-11{fill:#ebebeb;}.cls-12{fill:#544438;}.cls-13{fill:#4661ad;}.cls-14{fill:url(#Gradient_bez_nazwy_6-3);}.cls-15{fill:#88f7ff;}.cls-16{fill:#425ca3;}.cls-17{fill:url(#Gradient_bez_nazwy_6-4);}.cls-18,.cls-21{fill:none;stroke-miterlimit:10;}.cls-18{stroke:#0b246e;stroke-width:0.75px;}.cls-19{fill:#ff8b91;}.cls-20{fill:url(#Gradient_bez_nazwy_6-5);}.cls-21{stroke:#fff;stroke-linecap:round;stroke-width:4px;}</style><linearGradient id="Gradient_bez_nazwy_16" x1="271.07" y1="298.36" x2="281.76" y2="298.36" gradientUnits="userSpaceOnUse"><stop offset="0" stop-color="#4764e6"/><stop offset="1" stop-color="#511fd1"/></linearGradient><linearGradient id="Gradient_bez_nazwy_6" x1="278.72" y1="297.52" x2="291.34" y2="297.52" gradientUnits="userSpaceOnUse"><stop offset="0" stop-color="#4764e6"/><stop offset="1" stop-color="#694fff"/></linearGradient><linearGradient id="Gradient_bez_nazwy_6-2" x1="60.88" y1="197.68" x2="336.34" y2="197.68" xlink:href="#Gradient_bez_nazwy_6"/><linearGradient id="Gradient_bez_nazwy_6-3" x1="180.9" y1="139.43" x2="282.68" y2="139.43" xlink:href="#Gradient_bez_nazwy_6"/><linearGradient id="Gradient_bez_nazwy_6-4" x1="49.7" y1="299.55" x2="142.47" y2="299.55" xlink:href="#Gradient_bez_nazwy_6"/><linearGradient id="Gradient_bez_nazwy_6-5" x1="0" y1="260.01" x2="81.83" y2="260.01" xlink:href="#Gradient_bez_nazwy_6"/></defs><title>Zasób 2</title><g id="Warstwa_2" data-name="Warstwa 2"><g id="Objects"><polygon class="cls-1" points="377.15 159.93 240.95 81.43 240.95 76.8 377.15 155.3 377.15 159.93"/><polygon class="cls-1" points="231.43 140.05 95.23 61.55 95.23 56.92 231.43 135.42 231.43 140.05"/><polygon class="cls-1" points="424.78 88.84 278.82 4.63 278.82 0 424.78 84.2 424.78 88.84"/><polygon class="cls-1" points="330.76 44.24 278.82 14.28 278.82 9.65 330.76 39.61 330.76 44.24"/><polygon class="cls-1" points="209.06 53.03 157.11 23.07 157.11 18.44 209.06 48.4 209.06 53.03"/><polygon class="cls-1" points="129.13 50.2 87.04 25.89 87.04 21.26 129.13 45.57 129.13 50.2"/><polygon class="cls-1" points="350.75 116.16 180.48 17.85 180.48 13.22 350.75 111.53 350.75 116.16"/><path class="cls-2" d="M271.07,248.07l5,100.83a2.4,2.4,0,0,0,1.11,1.9h0a2.4,2.4,0,0,0,3.69-2l.86-100.1a2.39,2.39,0,0,0-2.1-2.4l-5.89-.73A2.4,2.4,0,0,0,271.07,248.07Z"/><path class="cls-3" d="M280.86,246.31l-2.14,103.53c0,2.06,4.48,1.59,6.15.38l.33-.25a2.52,2.52,0,0,0,1-1.91l5.1-100.34a2.53,2.53,0,0,0-1.95-2.59L284,243.85A2.53,2.53,0,0,0,280.86,246.31Z"/><polygon class="cls-4" points="332.65 219.18 336.34 220.58 336.34 225.01 332.65 225.01 332.65 219.18"/><path class="cls-4" d="M225.38,275.28,60.89,179.81l95-50.25a21.16,21.16,0,0,1,20.51.4l157.85,91.62a4.26,4.26,0,0,1-.15,7.45l-88.19,46.66A21.14,21.14,0,0,1,225.38,275.28Z"/><path class="cls-5" d="M225.37,270.34,60.88,174.87l95-50.25a21.14,21.14,0,0,1,20.51.4l157.85,91.61a4.27,4.27,0,0,1-.15,7.46l-88.19,46.65A21.16,21.16,0,0,1,225.37,270.34Z"/><polygon class="cls-6" points="234.62 207.41 234.62 209.52 206.43 225.9 206.44 223.78 234.62 207.41"/><polygon class="cls-6" points="206.44 223.78 206.43 225.9 144.05 189.88 144.06 187.77 206.44 223.78"/><polygon class="cls-7" points="234.62 207.41 206.44 223.78 144.06 187.77 172.24 171.39 234.62 207.41"/><g class="cls-8"><polygon class="cls-6" points="176.05 175.51 176.05 176.75 172.15 179.02 172.15 177.78 176.05 175.51"/><polygon class="cls-6" points="172.15 177.78 172.15 179.02 168.3 176.8 168.3 175.56 172.15 177.78"/><polygon class="cls-9" points="176.05 175.51 172.15 177.78 168.3 175.56 172.2 173.29 176.05 175.51"/></g><g class="cls-8"><polygon class="cls-6" points="180.99 178.36 180.98 179.6 177.08 181.87 177.09 180.63 180.99 178.36"/><polygon class="cls-6" points="177.09 180.63 177.08 181.87 173.24 179.65 173.24 178.41 177.09 180.63"/><polygon class="cls-9" points="180.99 178.36 177.09 180.63 173.24 178.41 177.14 176.14 180.99 178.36"/></g><g class="cls-8"><polygon class="cls-6" points="185.91 181.2 185.91 182.44 182.01 184.71 182.01 183.47 185.91 181.2"/><polygon class="cls-6" points="182.01 183.47 182.01 184.71 178.16 182.49 178.16 181.25 182.01 183.47"/><polygon class="cls-9" points="185.91 181.2 182.01 183.47 178.16 181.25 182.06 178.98 185.91 181.2"/></g><g class="cls-8"><polygon class="cls-6" points="190.84 184.05 190.83 185.29 186.93 187.55 186.94 186.31 190.84 184.05"/><polygon class="cls-6" points="186.94 186.31 186.93 187.55 183.09 185.33 183.09 184.09 186.94 186.31"/><polygon class="cls-9" points="190.84 184.05 186.94 186.31 183.09 184.09 186.99 181.83 190.84 184.05"/></g><g class="cls-8"><polygon class="cls-6" points="195.77 186.9 195.77 188.14 191.87 190.4 191.87 189.16 195.77 186.9"/><polygon class="cls-6" points="191.87 189.16 191.87 190.4 188.02 188.18 188.03 186.94 191.87 189.16"/><polygon class="cls-9" points="195.77 186.9 191.87 189.16 188.03 186.94 191.93 184.68 195.77 186.9"/></g><g class="cls-8"><polygon class="cls-6" points="200.7 189.74 200.69 190.98 196.8 193.25 196.8 192.01 200.7 189.74"/><polygon class="cls-6" points="196.8 192.01 196.8 193.25 192.95 191.03 192.95 189.79 196.8 192.01"/><polygon class="cls-9" points="200.7 189.74 196.8 192.01 192.95 189.79 196.85 187.52 200.7 189.74"/></g><g class="cls-8"><polygon class="cls-6" points="205.63 192.59 205.62 193.82 201.72 196.09 201.72 194.85 205.63 192.59"/><polygon class="cls-6" points="201.72 194.85 201.72 196.09 197.87 193.87 197.88 192.63 201.72 194.85"/><polygon class="cls-9" points="205.63 192.59 201.72 194.85 197.88 192.63 201.78 190.36 205.63 192.59"/></g><g class="cls-8"><polygon class="cls-6" points="210.56 195.44 210.56 196.68 206.66 198.94 206.66 197.7 210.56 195.44"/><polygon class="cls-6" points="206.66 197.7 206.66 198.94 202.8 196.71 202.8 195.47 206.66 197.7"/><polygon class="cls-9" points="210.56 195.44 206.66 197.7 202.8 195.47 206.7 193.21 210.56 195.44"/></g><g class="cls-8"><polygon class="cls-6" points="215.49 198.28 215.48 199.52 211.58 201.78 211.59 200.54 215.49 198.28"/><polygon class="cls-6" points="211.59 200.54 211.58 201.78 207.74 199.56 207.74 198.32 211.59 200.54"/><polygon class="cls-9" points="215.49 198.28 211.59 200.54 207.74 198.32 211.64 196.06 215.49 198.28"/></g><g class="cls-8"><polygon class="cls-6" points="220.41 201.12 220.41 202.36 216.51 204.63 216.51 203.39 220.41 201.12"/><polygon class="cls-6" points="216.51 203.39 216.51 204.63 212.66 202.41 212.66 201.17 216.51 203.39"/><polygon class="cls-9" points="220.41 201.12 216.51 203.39 212.66 201.17 216.56 198.9 220.41 201.12"/></g><g class="cls-8"><polygon class="cls-6" points="230.27 206.82 230.27 208.06 226.37 210.32 226.37 209.08 230.27 206.82"/><polygon class="cls-6" points="226.37 209.08 226.37 210.32 217.59 205.25 217.59 204.01 226.37 209.08"/><polygon class="cls-9" points="230.27 206.82 226.37 209.08 217.59 204.01 221.49 201.75 230.27 206.82"/></g><g class="cls-8"><polygon class="cls-6" points="176.01 181.25 176.01 182.49 172.11 184.75 172.12 183.51 176.01 181.25"/><polygon class="cls-6" points="172.12 183.51 172.11 184.75 163.33 179.68 163.33 178.44 172.12 183.51"/><polygon class="cls-9" points="176.01 181.25 172.12 183.51 163.33 178.44 167.23 176.18 176.01 181.25"/></g><g class="cls-8"><polygon class="cls-6" points="180.94 184.09 180.94 185.33 177.04 187.6 177.04 186.36 180.94 184.09"/><polygon class="cls-6" points="177.04 186.36 177.04 187.6 173.19 185.38 173.19 184.14 177.04 186.36"/><polygon class="cls-9" points="180.94 184.09 177.04 186.36 173.19 184.14 177.09 181.87 180.94 184.09"/></g><g class="cls-8"><polygon class="cls-6" points="185.87 186.94 185.86 188.18 181.96 190.44 181.97 189.2 185.87 186.94"/><polygon class="cls-6" points="181.97 189.2 181.96 190.44 178.12 188.22 178.12 186.98 181.97 189.2"/><polygon class="cls-9" points="185.87 186.94 181.97 189.2 178.12 186.98 182.02 184.72 185.87 186.94"/></g><g class="cls-8"><polygon class="cls-6" points="190.8 189.79 190.8 191.03 186.9 193.29 186.9 192.05 190.8 189.79"/><polygon class="cls-6" points="186.9 192.05 186.9 193.29 183.05 191.07 183.06 189.83 186.9 192.05"/><polygon class="cls-9" points="190.8 189.79 186.9 192.05 183.06 189.83 186.96 187.56 190.8 189.79"/></g><g class="cls-8"><polygon class="cls-6" points="195.73 192.63 195.72 193.87 191.82 196.14 191.83 194.9 195.73 192.63"/><polygon class="cls-6" points="191.83 194.9 191.82 196.14 187.98 193.91 187.98 192.68 191.83 194.9"/><polygon class="cls-9" points="195.73 192.63 191.83 194.9 187.98 192.68 191.88 190.41 195.73 192.63"/></g><g class="cls-8"><polygon class="cls-6" points="200.65 195.47 200.65 196.71 196.75 198.98 196.75 197.74 200.65 195.47"/><polygon class="cls-6" points="196.75 197.74 196.75 198.98 192.9 196.76 192.91 195.52 196.75 197.74"/><polygon class="cls-9" points="200.65 195.47 196.75 197.74 192.91 195.52 196.81 193.25 200.65 195.47"/></g><g class="cls-8"><polygon class="cls-6" points="205.59 198.32 205.59 199.56 201.69 201.83 201.69 200.59 205.59 198.32"/><polygon class="cls-6" points="201.69 200.59 201.69 201.83 197.83 199.6 197.83 198.36 201.69 200.59"/><polygon class="cls-9" points="205.59 198.32 201.69 200.59 197.83 198.36 201.73 196.1 205.59 198.32"/></g><g class="cls-8"><polygon class="cls-6" points="210.51 201.17 210.51 202.41 206.61 204.67 206.62 203.43 210.51 201.17"/><polygon class="cls-6" points="206.62 203.43 206.61 204.67 202.76 202.45 202.77 201.21 206.62 203.43"/><polygon class="cls-9" points="210.51 201.17 206.62 203.43 202.77 201.21 206.67 198.95 210.51 201.17"/></g><g class="cls-8"><polygon class="cls-6" points="215.44 204.01 215.44 205.25 211.54 207.52 211.54 206.28 215.44 204.01"/><polygon class="cls-6" points="211.54 206.28 211.54 207.52 207.69 205.3 207.69 204.06 211.54 206.28"/><polygon class="cls-9" points="215.44 204.01 211.54 206.28 207.69 204.06 211.59 201.79 215.44 204.01"/></g><g class="cls-8"><polygon class="cls-6" points="220.38 206.86 220.37 208.1 216.47 210.37 216.48 209.13 220.38 206.86"/><polygon class="cls-6" points="216.48 209.13 216.47 210.37 212.62 208.14 212.62 206.9 216.48 209.13"/><polygon class="cls-9" points="220.38 206.86 216.48 209.13 212.62 206.9 216.52 204.63 220.38 206.86"/></g><g class="cls-8"><polygon class="cls-6" points="225.3 209.71 225.3 210.94 221.4 213.21 221.4 211.97 225.3 209.71"/><polygon class="cls-6" points="221.4 211.97 221.4 213.21 217.55 210.99 217.56 209.75 221.4 211.97"/><polygon class="cls-9" points="225.3 209.71 221.4 211.97 217.56 209.75 221.46 207.48 225.3 209.71"/></g><g class="cls-8"><polygon class="cls-6" points="171.04 184.14 171.04 185.38 167.14 187.64 167.14 186.4 171.04 184.14"/><polygon class="cls-6" points="167.14 186.4 167.14 187.64 158.36 182.57 158.36 181.33 167.14 186.4"/><polygon class="cls-9" points="171.04 184.14 167.14 186.4 158.36 181.33 162.26 179.07 171.04 184.14"/></g><g class="cls-8"><polygon class="cls-6" points="175.97 186.98 175.97 188.22 172.07 190.49 172.07 189.25 175.97 186.98"/><polygon class="cls-6" points="172.07 189.25 172.07 190.49 168.22 188.27 168.22 187.03 172.07 189.25"/><polygon class="cls-9" points="175.97 186.98 172.07 189.25 168.22 187.03 172.12 184.76 175.97 186.98"/></g><g class="cls-8"><polygon class="cls-6" points="180.9 189.82 180.89 191.07 176.99 193.33 177 192.09 180.9 189.82"/><polygon class="cls-6" points="177 192.09 176.99 193.33 173.15 191.11 173.15 189.87 177 192.09"/><polygon class="cls-9" points="180.9 189.82 177 192.09 173.15 189.87 177.05 187.6 180.9 189.82"/></g><g class="cls-8"><polygon class="cls-6" points="185.83 192.68 185.83 193.91 181.93 196.18 181.93 194.94 185.83 192.68"/><polygon class="cls-6" points="181.93 194.94 181.93 196.18 178.08 193.96 178.08 192.72 181.93 194.94"/><polygon class="cls-9" points="185.83 192.68 181.93 194.94 178.08 192.72 181.98 190.45 185.83 192.68"/></g><g class="cls-8"><polygon class="cls-6" points="190.76 195.52 190.75 196.76 186.85 199.03 186.86 197.78 190.76 195.52"/><polygon class="cls-6" points="186.86 197.78 186.85 199.03 183.01 196.8 183.01 195.56 186.86 197.78"/><polygon class="cls-9" points="190.76 195.52 186.86 197.78 183.01 195.56 186.91 193.3 190.76 195.52"/></g><g class="cls-8"><polygon class="cls-6" points="195.68 198.36 195.68 199.6 191.78 201.87 191.78 200.63 195.68 198.36"/><polygon class="cls-6" points="191.78 200.63 191.78 201.87 187.93 199.65 187.94 198.41 191.78 200.63"/><polygon class="cls-9" points="195.68 198.36 191.78 200.63 187.94 198.41 191.84 196.14 195.68 198.36"/></g><g class="cls-8"><polygon class="cls-6" points="200.62 201.21 200.62 202.45 196.72 204.72 196.72 203.48 200.62 201.21"/><polygon class="cls-6" points="196.72 203.48 196.72 204.72 192.86 202.49 192.86 201.25 196.72 203.48"/><polygon class="cls-9" points="200.62 201.21 196.72 203.48 192.86 201.25 196.76 198.99 200.62 201.21"/></g><g class="cls-8"><polygon class="cls-6" points="205.54 204.06 205.54 205.3 201.64 207.56 201.64 206.32 205.54 204.06"/><polygon class="cls-6" points="201.64 206.32 201.64 207.56 197.79 205.34 197.8 204.1 201.64 206.32"/><polygon class="cls-9" points="205.54 204.06 201.64 206.32 197.8 204.1 201.7 201.84 205.54 204.06"/></g><g class="cls-8"><polygon class="cls-6" points="210.47 206.9 210.47 208.14 206.57 210.41 206.57 209.17 210.47 206.9"/><polygon class="cls-6" points="206.57 209.17 206.57 210.41 202.72 208.19 202.72 206.94 206.57 209.17"/><polygon class="cls-9" points="210.47 206.9 206.57 209.17 202.72 206.94 206.62 204.68 210.47 206.9"/></g><g class="cls-8"><polygon class="cls-6" points="220.33 212.59 220.33 213.83 216.43 216.1 216.43 214.86 220.33 212.59"/><polygon class="cls-6" points="216.43 214.86 216.43 216.1 207.65 211.03 207.65 209.79 216.43 214.86"/><polygon class="cls-9" points="220.33 212.59 216.43 214.86 207.65 209.79 211.55 207.52 220.33 212.59"/></g><g class="cls-8"><polygon class="cls-6" points="170.99 189.88 170.99 191.12 167.09 193.38 167.09 192.14 170.99 189.88"/><polygon class="cls-6" points="167.09 192.14 167.09 193.38 153.38 185.47 153.38 184.23 167.09 192.14"/><polygon class="cls-9" points="170.99 189.88 167.09 192.14 153.38 184.23 157.28 181.96 170.99 189.88"/></g><g class="cls-8"><polygon class="cls-6" points="175.91 192.72 175.91 193.96 172.01 196.23 172.01 194.99 175.91 192.72"/><polygon class="cls-6" points="172.01 194.99 172.01 196.23 168.16 194 168.17 192.76 172.01 194.99"/><polygon class="cls-9" points="175.91 192.72 172.01 194.99 168.17 192.76 172.07 190.5 175.91 192.72"/></g><g class="cls-8"><polygon class="cls-6" points="180.85 195.57 180.85 196.81 176.95 199.08 176.95 197.84 180.85 195.57"/><polygon class="cls-6" points="176.95 197.84 176.95 199.08 173.1 196.85 173.1 195.61 176.95 197.84"/><polygon class="cls-9" points="180.85 195.57 176.95 197.84 173.1 195.61 177 193.35 180.85 195.57"/></g><g class="cls-8"><polygon class="cls-6" points="185.78 198.41 185.77 199.65 181.87 201.92 181.88 200.68 185.78 198.41"/><polygon class="cls-6" points="181.88 200.68 181.87 201.92 178.03 199.7 178.03 198.46 181.88 200.68"/><polygon class="cls-9" points="185.78 198.41 181.88 200.68 178.03 198.46 181.93 196.19 185.78 198.41"/></g><g class="cls-8"><polygon class="cls-6" points="190.7 201.26 190.7 202.5 186.8 204.76 186.8 203.52 190.7 201.26"/><polygon class="cls-6" points="186.8 203.52 186.8 204.76 182.95 202.54 182.96 201.3 186.8 203.52"/><polygon class="cls-9" points="190.7 201.26 186.8 203.52 182.96 201.3 186.85 199.04 190.7 201.26"/></g><g class="cls-8"><polygon class="cls-6" points="195.64 204.11 195.63 205.35 191.73 207.61 191.74 206.37 195.64 204.11"/><polygon class="cls-6" points="191.74 206.37 191.73 207.61 187.88 205.39 187.88 204.15 191.74 206.37"/><polygon class="cls-9" points="195.64 204.11 191.74 206.37 187.88 204.15 191.78 201.88 195.64 204.11"/></g><g class="cls-8"><polygon class="cls-6" points="200.56 206.95 200.56 208.19 196.66 210.46 196.66 209.22 200.56 206.95"/><polygon class="cls-6" points="196.66 209.22 196.66 210.46 192.81 208.24 192.82 207 196.66 209.22"/><polygon class="cls-9" points="200.56 206.95 196.66 209.22 192.82 207 196.72 204.73 200.56 206.95"/></g><g class="cls-8"><polygon class="cls-6" points="205.49 209.79 205.49 211.03 201.59 213.3 201.59 212.06 205.49 209.79"/><polygon class="cls-6" points="201.59 212.06 201.59 213.3 197.74 211.08 197.74 209.84 201.59 212.06"/><polygon class="cls-9" points="205.49 209.79 201.59 212.06 197.74 209.84 201.64 207.57 205.49 209.79"/></g><g class="cls-8"><polygon class="cls-6" points="215.35 215.49 215.35 216.73 211.45 218.99 211.45 217.75 215.35 215.49"/><polygon class="cls-6" points="211.45 217.75 211.45 218.99 202.66 213.92 202.67 212.68 211.45 217.75"/><polygon class="cls-9" points="215.35 215.49 211.45 217.75 202.67 212.68 206.57 210.42 215.35 215.49"/></g><g class="cls-8"><polygon class="cls-6" points="156.16 187.07 156.15 188.31 152.25 190.58 152.26 189.34 156.16 187.07"/><polygon class="cls-6" points="152.26 189.34 152.25 190.58 148.41 188.36 148.41 187.12 152.26 189.34"/><polygon class="cls-9" points="156.16 187.07 152.26 189.34 148.41 187.12 152.31 184.85 156.16 187.07"/></g><g class="cls-8"><polygon class="cls-6" points="161.09 189.92 161.09 191.16 157.19 193.43 157.19 192.19 161.09 189.92"/><polygon class="cls-6" points="157.19 192.19 157.19 193.43 153.34 191.21 153.34 189.97 157.19 192.19"/><polygon class="cls-9" points="161.09 189.92 157.19 192.19 153.34 189.97 157.25 187.7 161.09 189.92"/></g><g class="cls-8"><polygon class="cls-6" points="166.02 192.76 166.01 194 162.12 196.27 162.12 195.03 166.02 192.76"/><polygon class="cls-6" points="162.12 195.03 162.12 196.27 158.27 194.05 158.27 192.81 162.12 195.03"/><polygon class="cls-9" points="166.02 192.76 162.12 195.03 158.27 192.81 162.17 190.54 166.02 192.76"/></g><g class="cls-8"><polygon class="cls-6" points="190.67 207 190.66 208.24 186.76 210.5 186.77 209.26 190.67 207"/><polygon class="cls-6" points="186.77 209.26 186.76 210.5 163.19 196.89 163.2 195.65 186.77 209.26"/><polygon class="cls-9" points="190.67 207 186.77 209.26 163.2 195.65 167.1 193.39 190.67 207"/></g><g class="cls-8"><polygon class="cls-6" points="195.59 209.84 195.59 211.08 191.69 213.35 191.69 212.11 195.59 209.84"/><polygon class="cls-6" points="191.69 212.11 191.69 213.35 187.84 211.13 187.84 209.88 191.69 212.11"/><polygon class="cls-9" points="195.59 209.84 191.69 212.11 187.84 209.88 191.75 207.62 195.59 209.84"/></g><g class="cls-8"><polygon class="cls-6" points="200.52 212.68 200.51 213.92 196.62 216.19 196.62 214.95 200.52 212.68"/><polygon class="cls-6" points="196.62 214.95 196.62 216.19 192.77 213.97 192.77 212.73 196.62 214.95"/><polygon class="cls-9" points="200.52 212.68 196.62 214.95 192.77 212.73 196.67 210.46 200.52 212.68"/></g><g class="cls-8"><polygon class="cls-6" points="210.38 218.38 210.38 219.62 206.48 221.88 206.48 220.64 210.38 218.38"/><polygon class="cls-6" points="206.48 220.64 206.48 221.88 197.69 216.81 197.7 215.57 206.48 220.64"/><polygon class="cls-9" points="210.38 218.38 206.48 220.64 197.7 215.57 201.6 213.31 210.38 218.38"/></g><ellipse class="cls-10" cx="248.78" cy="235.44" rx="13.31" ry="7.68"/><rect class="cls-10" x="235.47" y="213.19" width="26.61" height="22.25"/><ellipse class="cls-9" cx="248.78" cy="213.19" rx="13.31" ry="7.68"/><path class="cls-11" d="M258.9,214.84a6.84,6.84,0,0,1-2.47,2,18.44,18.44,0,0,1-15,0,6.71,6.71,0,0,1-2.46-2c-1.37-1.92-.55-4.16,2.46-5.7a18.44,18.44,0,0,1,15,0C259.44,210.68,260.26,212.92,258.9,214.84Z"/><path class="cls-12" d="M258.9,214.84a6.84,6.84,0,0,1-2.47,2,18.44,18.44,0,0,1-15,0,6.71,6.71,0,0,1-2.46-2,6.71,6.71,0,0,1,2.46-2,18.44,18.44,0,0,1,15,0A6.84,6.84,0,0,1,258.9,214.84Z"/><polygon class="cls-9" points="149.43 173.74 116.98 155 162.88 128.5 195.34 147.24 149.43 173.74"/><polygon class="cls-13" points="150.09 167.39 120.78 150.47 162.23 126.54 191.53 143.46 150.09 167.39"/><polygon class="cls-9" points="215.89 110.84 215.89 115.76 227.32 122.16 227.32 116.5 215.89 110.84"/><path class="cls-4" d="M218.67,194.11,197.5,181.88a2,2,0,0,1,0-3.54l24.11-13.91,27.17,15.68-24.24,14A5.86,5.86,0,0,1,218.67,194.11Z"/><path class="cls-4" d="M184.2,69l-3.09,2.1,3,76.6,98.27,60.11,2.81-1.89a1.59,1.59,0,0,0,.7-1.31v-76a2.41,2.41,0,0,0-1.21-2.09L185.09,69A.84.84,0,0,0,184.2,69Z"/><path class="cls-14" d="M281.18,128.4a3,3,0,0,1,1.5,2.6v76a.89.89,0,0,1-1.33.77l-98.07-56.63A4.73,4.73,0,0,1,180.9,147V71.59a.63.63,0,0,1,.95-.55"/><polygon class="cls-9" points="180.9 135.27 180.9 74.33 282.56 133.04 282.68 194.04 180.9 135.27"/><polygon class="cls-10" points="197.96 93.64 191.89 90.14 191.89 88.63 197.96 92.14 197.96 93.64"/><polygon class="cls-15" points="250.8 124.14 201.84 95.88 201.84 94.37 250.8 122.64 250.8 124.14"/><polygon class="cls-15" points="271.29 135.98 255.07 126.61 255.07 125.11 271.29 134.48 271.29 135.98"/><polygon class="cls-10" points="197.96 98.56 191.89 95.06 191.89 93.56 197.96 97.06 197.96 98.56"/><polygon class="cls-15" points="250.8 129.07 201.84 100.8 201.84 99.3 250.8 127.57 250.8 129.07"/><polygon class="cls-15" points="271.29 140.91 255.07 131.54 255.07 130.03 271.29 139.4 271.29 140.91"/><polygon class="cls-10" points="197.96 103.49 191.89 99.98 191.89 98.48 197.96 101.99 197.96 103.49"/><polygon class="cls-15" points="240.84 128.24 201.84 105.72 201.84 104.22 240.84 126.74 240.84 128.24"/><polygon class="cls-15" points="271.29 145.83 244.83 130.55 244.83 129.04 271.29 144.33 271.29 145.83"/><polygon class="cls-10" points="197.96 108.41 191.89 104.91 191.89 103.41 197.96 106.91 197.96 108.41"/><polygon class="cls-15" points="257.88 143.01 201.84 110.65 201.84 109.15 257.88 141.5 257.88 143.01"/><polygon class="cls-15" points="271.29 150.75 255.07 141.39 255.07 139.88 271.29 149.25 271.29 150.75"/><polygon class="cls-10" points="197.96 113.34 191.89 109.84 191.89 108.33 197.96 111.84 197.96 113.34"/><polygon class="cls-15" points="250.8 143.84 201.84 115.58 201.84 114.07 250.8 142.34 250.8 143.84"/><polygon class="cls-15" points="271.29 155.68 255.07 146.31 255.07 144.81 271.29 154.18 271.29 155.68"/><polygon class="cls-10" points="197.96 118.26 191.89 114.76 191.89 113.26 197.96 116.76 197.96 118.26"/><polygon class="cls-15" points="236.68 140.64 201.84 120.5 201.84 119 236.68 139.13 236.68 140.64"/><polygon class="cls-15" points="271.29 160.61 268.51 159 268.51 157.49 271.29 159.1 271.29 160.61"/><polygon class="cls-15" points="264.45 156.65 255.07 151.24 255.07 149.74 264.45 155.15 264.45 156.65"/><polygon class="cls-10" points="197.96 123.19 191.89 119.69 191.89 118.18 197.96 121.69 197.96 123.19"/><polygon class="cls-15" points="243.31 149.38 201.84 125.43 201.84 123.92 243.31 147.87 243.31 149.38"/><polygon class="cls-15" points="271.29 165.53 247.32 151.69 247.32 150.19 271.29 164.03 271.29 165.53"/><polygon class="cls-10" points="197.96 128.11 191.89 124.61 191.89 123.11 197.96 126.61 197.96 128.11"/><polygon class="cls-15" points="225.24 143.87 201.84 130.35 201.84 128.85 225.24 142.36 225.24 143.87"/><polygon class="cls-15" points="271.29 170.46 229.81 146.5 229.81 145 271.29 168.95 271.29 170.46"/><polygon class="cls-10" points="197.96 133.04 191.89 129.54 191.89 128.03 197.96 131.54 197.96 133.04"/><polygon class="cls-15" points="250.8 163.55 201.84 135.28 201.84 133.78 250.8 162.04 250.8 163.55"/><polygon class="cls-15" points="271.29 175.38 255.07 166.01 255.07 164.51 271.29 173.88 271.29 175.38"/><polygon class="cls-4" points="297.34 100.33 237.04 66.64 237.04 28.13 297.34 61.82 297.34 100.33"/><polygon class="cls-4" points="314.58 110.17 254.58 76.12 254.02 37.62 314.88 71.3 314.58 110.17"/><path class="cls-10" d="M282.49,70.09v3.34l-7.57-4.2V76.8L271.58,75V67.38L264,63.18V59.85l7.57,4.2V56.47l3.34,1.85V65.9Z"/><path class="cls-10" d="M305.21,82.69V86l-7.57-4.2V89.4l-3.34-1.85V80l-7.57-4.19V72.44l7.57,4.2V69.07l3.34,1.85v7.57Z"/><path class="cls-10" d="M259.27,65.26a1,1,0,0,1,.36.4l1,1.79a3.6,3.6,0,0,1-2.48.72,8.38,8.38,0,0,1-3.53-1.28,14.24,14.24,0,0,1-3.27-2.6,17.2,17.2,0,0,1-2.5-3.47,18,18,0,0,1-1.6-4,16.6,16.6,0,0,1-.57-4.3,9.64,9.64,0,0,1,.6-3.63,4.36,4.36,0,0,1,1.67-2.13,4,4,0,0,1,2.58-.53,8.23,8.23,0,0,1,3.31,1.19A13.63,13.63,0,0,1,258,49.89a18.28,18.28,0,0,1,2.4,3.16l-.81.85a.36.36,0,0,1-.21.13.55.55,0,0,1-.31-.09,2,2,0,0,1-.52-.55,12.82,12.82,0,0,0-.78-1,13.14,13.14,0,0,0-1.18-1.25,9.4,9.4,0,0,0-1.76-1.27,5.58,5.58,0,0,0-2.27-.81,2.65,2.65,0,0,0-1.78.42,3.23,3.23,0,0,0-1.15,1.64,8.36,8.36,0,0,0-.41,2.86,13.33,13.33,0,0,0,.42,3.36,13.8,13.8,0,0,0,1.18,3,12.53,12.53,0,0,0,1.77,2.47,9.73,9.73,0,0,0,2.2,1.76,11.14,11.14,0,0,0,1.29.65,5.24,5.24,0,0,0,1.06.3,2.54,2.54,0,0,0,.91,0,3,3,0,0,0,.84-.26.45.45,0,0,1,.2,0A.49.49,0,0,1,259.27,65.26Z"/><polygon class="cls-13" points="373.57 219.32 332.12 196.12 332.12 157.61 373.57 180.81 373.57 219.32"/><polygon class="cls-13" points="387.57 227.14 346.12 203.94 346.12 165.43 387.57 188.63 387.57 227.14"/><path class="cls-15" d="M376.47,197.11l-2.52-1.4-1.26,5.58,3.15,1.74v2.43l-3.63-2-1,4.56-2.58-1.43,1-4.56-3.81-2.11-1,4.56L362.19,203l1-4.57-2.1-1.16v-2.43l2.58,1.43,1.26-5.58L361.74,189v-2.43l3.69,2,1-4.36,2.58,1.43L368,190l3.81,2.11,1-4.35,2.61,1.44-1,4.36,2,1.13Zm-6.36,2.75,1.23-5.59-3.81-2.11-1.23,5.58Z"/><path class="cls-15" d="M355.27,195.26a1,1,0,0,1,.36.4l1,1.79a3.6,3.6,0,0,1-2.48.72,8.38,8.38,0,0,1-3.53-1.28,14.24,14.24,0,0,1-3.27-2.6,17.2,17.2,0,0,1-2.5-3.47,18,18,0,0,1-1.6-4,16.6,16.6,0,0,1-.57-4.3,9.64,9.64,0,0,1,.6-3.63,4.36,4.36,0,0,1,1.67-2.13,4,4,0,0,1,2.58-.53,8.23,8.23,0,0,1,3.31,1.19,13.63,13.63,0,0,1,3.15,2.49,18.28,18.28,0,0,1,2.4,3.16l-.81.85a.36.36,0,0,1-.21.13.55.55,0,0,1-.31-.09,2,2,0,0,1-.52-.55,12.82,12.82,0,0,0-.78-1,13.14,13.14,0,0,0-1.18-1.25,9.4,9.4,0,0,0-1.76-1.27,5.58,5.58,0,0,0-2.27-.81,2.65,2.65,0,0,0-1.78.42,3.23,3.23,0,0,0-1.15,1.64,8.36,8.36,0,0,0-.41,2.86,13.33,13.33,0,0,0,.42,3.36,13.8,13.8,0,0,0,1.18,3,12.53,12.53,0,0,0,1.77,2.47,9.73,9.73,0,0,0,2.2,1.76,11.14,11.14,0,0,0,1.29.65,5.24,5.24,0,0,0,1.06.3,2.54,2.54,0,0,0,.91,0,3,3,0,0,0,.84-.26.45.45,0,0,1,.2,0A.49.49,0,0,1,355.27,195.26Z"/><polygon class="cls-4" points="430.57 104.32 389.12 81.12 389.12 42.61 430.57 65.81 430.57 104.32"/><path class="cls-9" d="M405.79,74a9,9,0,0,1-.35,2.69,3.08,3.08,0,0,1-1,1.58,2.25,2.25,0,0,1-1.66.41,5.64,5.64,0,0,1-2.27-.84,14.46,14.46,0,0,1-2.39-1.75l.14-1.6a.39.39,0,0,1,.16-.31c.08,0,.22,0,.4.08a3.9,3.9,0,0,1,.53.42,5.55,5.55,0,0,0,.9.64,3.73,3.73,0,0,0,1.31.5,1.22,1.22,0,0,0,1-.24,2,2,0,0,0,.6-1,7.45,7.45,0,0,0,.2-1.9V60.08l2.47,1.42Z"/><path class="cls-9" d="M418.32,71.86a.47.47,0,0,1-.24.2.51.51,0,0,1-.33-.08,1.92,1.92,0,0,1-.47-.5c-.18-.25-.4-.54-.67-.88a10.83,10.83,0,0,0-.95-1,7,7,0,0,0-1.33-1,4.24,4.24,0,0,0-1.28-.52,1.61,1.61,0,0,0-.92.07,1.08,1.08,0,0,0-.56.57,2.33,2.33,0,0,0-.19,1,3.31,3.31,0,0,0,.34,1.48,7.38,7.38,0,0,0,.89,1.39,17.47,17.47,0,0,0,1.27,1.35l1.44,1.39c.5.48,1,1,1.45,1.5A12,12,0,0,1,418,78.48a9,9,0,0,1,.9,1.91,6.83,6.83,0,0,1,.34,2.21,5.6,5.6,0,0,1-.38,2.16,2.65,2.65,0,0,1-1.09,1.31,2.81,2.81,0,0,1-1.77.28,6.59,6.59,0,0,1-2.37-.9,11.36,11.36,0,0,1-1.55-1.08A13.82,13.82,0,0,1,410.68,83a16,16,0,0,1-2.3-3.15l.7-1a.58.58,0,0,1,.25-.12.54.54,0,0,1,.33.08,1.94,1.94,0,0,1,.56.62c.22.32.48.69.79,1.11a15.09,15.09,0,0,0,1.12,1.29,7.22,7.22,0,0,0,1.6,1.21,4.45,4.45,0,0,0,1.36.56,1.59,1.59,0,0,0,1-.08,1.36,1.36,0,0,0,.64-.69,3.13,3.13,0,0,0,.22-1.24,3.79,3.79,0,0,0-.34-1.57,6.76,6.76,0,0,0-.89-1.41,14.16,14.16,0,0,0-1.26-1.34c-.47-.44-1-.89-1.45-1.36s-1-1-1.45-1.47a11.42,11.42,0,0,1-1.26-1.67,8.59,8.59,0,0,1-.89-2,8,8,0,0,1-.34-2.36,4.33,4.33,0,0,1,.35-1.79,2.31,2.31,0,0,1,1-1.12,2.7,2.7,0,0,1,1.64-.24,5.94,5.94,0,0,1,2.23.83,12,12,0,0,1,2.57,2,14,14,0,0,1,2,2.65Z"/><polygon class="cls-4" points="140.57 102.32 99.12 79.12 99.12 40.61 140.57 63.81 140.57 102.32"/><path class="cls-9" d="M129.32,70.86a.47.47,0,0,1-.24.2.51.51,0,0,1-.33-.08,1.92,1.92,0,0,1-.47-.5c-.18-.25-.4-.54-.67-.88a10.83,10.83,0,0,0-1-1,7,7,0,0,0-1.33-1,4.24,4.24,0,0,0-1.28-.52,1.61,1.61,0,0,0-.92.07,1.08,1.08,0,0,0-.56.57,2.33,2.33,0,0,0-.19,1,3.31,3.31,0,0,0,.34,1.48,7.38,7.38,0,0,0,.89,1.39,17.47,17.47,0,0,0,1.27,1.35l1.44,1.39c.5.48,1,1,1.45,1.5A12,12,0,0,1,129,77.48a9,9,0,0,1,.9,1.91,6.83,6.83,0,0,1,.34,2.21,5.6,5.6,0,0,1-.38,2.16,2.65,2.65,0,0,1-1.09,1.31,2.81,2.81,0,0,1-1.77.28,6.59,6.59,0,0,1-2.37-.9,11.36,11.36,0,0,1-1.55-1.08A13.82,13.82,0,0,1,121.68,82a16,16,0,0,1-2.3-3.15l.7-1a.58.58,0,0,1,.25-.12.54.54,0,0,1,.33.08,1.94,1.94,0,0,1,.56.62c.22.32.48.69.79,1.11a15.09,15.09,0,0,0,1.12,1.29,7.22,7.22,0,0,0,1.6,1.21,4.45,4.45,0,0,0,1.36.56,1.59,1.59,0,0,0,1-.08,1.36,1.36,0,0,0,.64-.69,3.13,3.13,0,0,0,.22-1.24,3.79,3.79,0,0,0-.34-1.57,6.76,6.76,0,0,0-.89-1.41,14.16,14.16,0,0,0-1.26-1.34c-.47-.44-1-.89-1.45-1.36s-1-1-1.45-1.47a11.42,11.42,0,0,1-1.26-1.67,8.59,8.59,0,0,1-.89-2,8,8,0,0,1-.34-2.36,4.33,4.33,0,0,1,.35-1.79,2.31,2.31,0,0,1,1-1.12,2.7,2.7,0,0,1,1.64-.24,5.94,5.94,0,0,1,2.23.83,12,12,0,0,1,2.57,2,14,14,0,0,1,2,2.65Z"/><path class="cls-9" d="M119.34,64.44l-5.28-3V78.21l-2.45-1.42V60l-5.31-3.07V54.54l13,7.52Z"/><path class="cls-4" d="M67.68,382.69A8.19,8.19,0,0,1,64,389.11c-2,1.19-3.71.23-3.71-2.14A8.21,8.21,0,0,1,64,380.54C66,379.36,67.68,380.32,67.68,382.69Z"/><path class="cls-4" d="M64.63,380.79A8.17,8.17,0,0,1,63.07,388c-1.59,1.76-3.46,1.35-4.19-.9a8.23,8.23,0,0,1,1.57-7.26C62,378.13,63.91,378.53,64.63,380.79Z"/><path class="cls-4" d="M132.56,316.52s.39,12.49,2.12,16.91,5.95,4,9.22,3.65,11.54-6.31,15.57-10.17,12.5-3.12,19.23-12.62,0-13.54-2.12-13.73-13.22,8.69-22,5.19Z"/><path class="cls-16" d="M48.94,253.53S120.45,230,134,239.71c12.71,9.09,10.65,36.44,20.56,66a3.18,3.18,0,0,1-.1,2.33c-1.52,3.47-7.12,12.9-22.12,10.45a437,437,0,0,1-14-44.25S62.71,310.17,50,300.87,48.94,253.53,48.94,253.53Z"/><polygon class="cls-4" points="19.74 355.79 66.74 347.52 62.47 382.5 66.74 383.57 75.02 347.52 118.82 365.54 121.22 362.96 79.56 343.24 111.08 328.82 107.6 327.22 72.68 339.14 54.19 327.22 49.47 328.29 66.21 342.18 20.81 352.32 19.74 355.79"/><path class="cls-4" d="M25.69,351A8.19,8.19,0,0,1,22,357.42c-2.05,1.18-3.71.22-3.71-2.14A8.19,8.19,0,0,1,22,348.85C24,347.67,25.69,348.62,25.69,351Z"/><path class="cls-4" d="M27.37,352a8.23,8.23,0,0,1-3.71,6.43c-2.05,1.18-3.71.22-3.71-2.15a8.23,8.23,0,0,1,3.71-6.43C25.71,348.63,27.37,349.59,27.37,352Z"/><path class="cls-4" d="M122.86,361.75a8.19,8.19,0,0,1-3.71,6.43c-2.05,1.19-3.72.23-3.72-2.14a8.22,8.22,0,0,1,3.72-6.43C121.2,358.43,122.86,359.39,122.86,361.75Z"/><path class="cls-4" d="M120.79,360.39a8.19,8.19,0,0,1-3.71,6.43c-2,1.18-3.71.22-3.71-2.14a8.19,8.19,0,0,1,3.71-6.43C119.13,357.06,120.79,358,120.79,360.39Z"/><rect class="cls-4" x="67.8" y="323.24" width="8.43" height="20.63"/><path class="cls-4" d="M167.36,327.21s.39,12.49,2.12,16.92,6,4,9.22,3.65,11.54-6.32,15.57-10.18,12.5-3.12,19.22-12.62,0-13.53-2.11-13.72S198.71,319,190,315.53Z"/><path class="cls-13" d="M83.92,262.21s71.51-23.54,85.1-13.82c12.87,9.21,10.59,37.12,20.94,67.14,0,0-4.32,14.67-22.6,11.68a437,437,0,0,1-14-44.25S97.69,318.85,85,309.55,83.92,262.21,83.92,262.21Z"/><path class="cls-17" d="M142.41,292.77c-2.52,13.62-25.72,30.26-66.08,36.31-1.41.22-14.82,2.86-26.63.54,7.42-14.22,27-37.83,20.86-61.09C85,270.78,144.61,280.81,142.41,292.77Z"/><path class="cls-13" d="M70.48,271.58l8.58,8.82c2,12.16,9.37,24,20.58,24.93l57.45-19.64v-20Z"/><path class="cls-4" d="M89.88,182.37,60.09,167.29a21.17,21.17,0,0,0-9.89-2.36c-6.29.08-15.42,2.18-19,12.91-5.68,17.07,12.74,86.42,12.74,86.42s18.5,22.89,33.13,21.81,35.68-13.41,35.68-23.71c0-7.34-5.69-41.91-9-61.12A26,26,0,0,0,89.88,182.37Z"/><path class="cls-18" d="M103.87,138.55c.17,0,3.82.87,5.75,1.34a1,1,0,0,1,.68,1.38l-1.24,2.78a2.65,2.65,0,0,1-2.41,1.56h-4.32"/><path class="cls-19" d="M65.09,164.79l3.07-19.95,38.68-22.41v15.12a6.8,6.8,0,0,1-.48,2.52l-.74,1.93a6.16,6.16,0,0,0-.33,3.32l.28,1.68a6.83,6.83,0,0,1-.44,3.84l-3.48,8.27A6.42,6.42,0,0,1,95,163l-5.49-.66-2.3,12.28Z"/><path class="cls-4" d="M67.23,155.65,74,157a11.26,11.26,0,0,0,9.68-2.6l9.18-8.13v2.22l1.47-.28a3.6,3.6,0,0,0,2.78-2.5l3.55-11.69s9.89-.84,12.81-13c0,0-10.86-10.72-26.46-9.61a25.77,25.77,0,0,0-21.31,14.07s-3.34-.42-4.87,3.76c-1.24,3.38,2.29,18.21,3.7,23.78A3.47,3.47,0,0,0,67.23,155.65Z"/><path class="cls-19" d="M92.37,151.34,93.61,145s-1.29-3.1-4.28-1.87-1.72,9,0,9.25A4.15,4.15,0,0,0,92.37,151.34Z"/><polygon class="cls-10" points="93.61 144.97 109.7 144.01 110.72 141.46 92.43 143.44 93.61 144.97"/><path class="cls-20" d="M81.68,296.19c2.22,22.75-20.83,40-41.83,31-19.57-8.41-33.92-27.08-38.18-59.32-4.75-35.9,1.67-58.62,6.38-69.66a13,13,0,0,1,13.71-7.69c45.08,6.28,56.34,80.34,56.34,80.34S80.36,282.65,81.68,296.19Z"/><path class="cls-19" d="M121.09,192.31s5.45-10.69,7.13-11.74,15.52-1.47,16.78-1.68,3.78,2.52,3.78,2.52,7.13-.21,8,0,.63,4.18-1.26,4.19a26.22,26.22,0,0,0-5.5,1.12l-4.36,5.59s-7.34,4.83-8.6,4.83S127,198.82,127,198.82Z"/><path class="cls-19" d="M168.7,207.48s5.45-10.7,7.13-11.75,15.52-1.47,16.78-1.68,3.78,2.52,3.78,2.52l2.67,1.67a2.77,2.77,0,0,1,.13,4.62c-2.81,2-5.95,4.62-5.95,4.62s-7.34,4.82-8.6,4.82S174.57,214,174.57,214Z"/><path class="cls-4" d="M77.07,213.57l48.39,27.35a17,17,0,0,0,17.72-.62L180,213.21s-1.79-9.2-8.91-11.29c-1.48-.43-33.11,11.05-33.11,11.05a6.52,6.52,0,0,1-6.45-.69L94.74,185.56,77.07,209.49"/><path class="cls-4" d="M86.83,196.27,122.39,188c7.3,0,8.37,10.42,8.37,10.42l-24.52,17.38Z"/><path class="cls-4" d="M112.75,325.47A8.21,8.21,0,0,1,109,331.9c-2.05,1.18-3.72.22-3.72-2.15a8.2,8.2,0,0,1,3.72-6.42C111.09,322.14,112.75,323.1,112.75,325.47Z"/><ellipse class="cls-4" cx="107.33" cy="326.63" rx="5.25" ry="3.03" transform="translate(-229.2 256.26) rotate(-60)"/><path class="cls-21" d="M142.41,292.77c-43.91,24.94-57,6.77-60.58-2a20.28,20.28,0,0,1-1.22-4S71.7,240.62,59.76,219.3c-10.06-18-23.49-29.93-44.4-30.57"/><polygon class="cls-13" points="65.44 161.57 60.09 167.28 89.88 182.37 87.8 171.39 65.44 161.57"/></g></g></svg>