<?xml version="1.0" encoding="utf-8"?>
<!-- Generator: Adobe Illustrator 23.0.1, SVG Export Plug-In . SVG Version: 6.00 Build 0)  -->
<svg version="1.1" id="Warstwa_1" xmlns="http://www.w3.org/2000/svg" xmlns:xlink="http://www.w3.org/1999/xlink" x="0px" y="0px"
	 viewBox="0 0 262 163" style="enable-background:new 0 0 262 163;" xml:space="preserve">
<style type="text/css">
	.st0{fill:#002F56;}
	.st1{fill:#96D8E9;}
	.st2{fill:#48C4E5;}
</style>
<g>
	<g id="Nx---Quick-Wins" transform="translate(-476.000000, -1284.000000)">
		<g id="Logos" transform="translate(-11.000000, 782.000000)">
			<g id="Nx_Flat_White" transform="translate(487.000000, 502.000000)">
				<polygon id="Path" class="st0" points="130.7,104.6 97.5,52.7 97.4,96.3 40.2,0 0,0 0,162.6 39.8,162.6 39.9,66.4 96.5,158.3 
									"/>
				<polygon class="st0" points="97.5,41.8 137.2,41.8 137.3,41.3 137.3,0 97.5,0 97.5,41.3 				"/>
				<path class="st1" d="M198.7,86.9c-9.5-0.2-18.1,5.7-21.5,14.6c5.6-8.3,16.2-11.7,25.5-8.1c4.3,1.8,10,4.6,14.5,3.1
					C213,90.4,206,86.9,198.7,86.9L198.7,86.9z"/>
				<path class="st2" d="M243.8,106.4c0-4.9-2.6-6-8.1-8c-4.1-1.4-8.7-3-12.1-7.4c-0.7-0.9-1.3-1.8-1.9-2.9c-1.5-2.7-3.4-5.1-5.8-7
					c-3.2-2.4-7.4-3.5-12.9-3.5c-11,0-20.8,6.6-25,16.8c5.3-7.3,14-11.3,23-10.4c9,0.9,16.8,6.4,20.6,14.6c1.9,3.1,5.6,4.6,9.1,3.6
					c5.4-1.2,5,3.9,13.1,5.7L243.8,106.4z"/>
				<path class="st0" d="M261.5,105.4v-0.1c-0.1-32.2-26.3-59.8-58.5-59.8c-19.7,0-38.1,9.9-48.9,26.4l-0.2-0.4l-16.6-26l-39.7,0
					l37.8,59.1l-36.8,58H137l16.8-25.8l17.1,25.8h38.6l-35-55.1c-0.6-1.1-0.9-2.3-0.9-3.5c0-7.8,3.1-15.2,8.6-20.7
					c5.5-5.5,13-8.6,20.7-8.6c16.2,0,18.9,9.7,22.4,14.3c6.9,9,20.7,5.1,20.7,16.8l0,0c0,2.8,1.5,5.3,3.9,6.6
					c2.4,1.3,5.3,1.3,7.7-0.1c2.4-1.4,3.8-4,3.8-6.7l0,0L261.5,105.4L261.5,105.4z"/>
				<path class="st0" d="M261.5,113.7c0.4,2.7,0,5.5-1.1,8.1c-2.2,5.1-5.9,3.4-5.9,3.4s-3.2-1.5-1.2-4.5
					C255.4,117.4,259.6,117.7,261.5,113.7z"/>
			</g>
		</g>
	</g>
</g>
</svg>
